<svg id="Layer_1" data-name="Layer 1" xmlns="http://www.w3.org/2000/svg" viewBox="0 0 119.94 116.69"><defs><style>.cls-1{fill:#8f724b;}</style></defs><polygon class="cls-1" points="47.24 113.6 45.74 111.75 44.95 111.75 44.95 116.63 45.84 116.63 45.84 113.2 47.13 114.81 47.36 114.81 48.63 113.21 48.63 116.63 49.52 116.63 49.52 111.75 48.74 111.75 47.24 113.6"/><path class="cls-1" d="M888.48,469.75l-2.1,4.91h.92l.59-1.38h1.84l.62,1.38h.93l-2.19-4.91Zm.88,2.72h-1.12l.54-1.31Z" transform="translate(-835.09 -358.03)"/><path class="cls-1" d="M894,473.42a1.54,1.54,0,0,1-.49-1.18,1.57,1.57,0,0,1,.5-1.19,2.32,2.32,0,0,1,2.8,0l.16.1v-1l-.06,0a3.08,3.08,0,0,0-3.55.33,2.42,2.42,0,0,0-.76,1.8,2.45,2.45,0,0,0,.33,1.24,2.48,2.48,0,0,0,.91.91,2.69,2.69,0,0,0,1.38.33,3.59,3.59,0,0,0,1.75-.42l0,0v-1l-.17.11A2.35,2.35,0,0,1,894,473.42Z" transform="translate(-835.09 -358.03)"/><path class="cls-1" d="M900.89,469.75l-2.1,4.91h.92l.59-1.38h1.84l.62,1.38h.93l-2.19-4.91Zm.88,2.72h-1.12l.54-1.31Z" transform="translate(-835.09 -358.03)"/><path class="cls-1" d="M908.58,469.78v2.76a2.51,2.51,0,0,1-.07.73.89.89,0,0,1-.26.35,1.37,1.37,0,0,1-.9.29,1.51,1.51,0,0,1-.67-.14,1,1,0,0,1-.42-.38,1.86,1.86,0,0,1-.13-.85v-2.76h-.89v2.75a3.55,3.55,0,0,0,.08.86,1.85,1.85,0,0,0,.2.47,1.7,1.7,0,0,0,.31.36,2.27,2.27,0,0,0,1.53.5,2.24,2.24,0,0,0,1.52-.51,1.43,1.43,0,0,0,.3-.35,1.51,1.51,0,0,0,.21-.48,3.08,3.08,0,0,0,.08-.84v-2.76Z" transform="translate(-835.09 -358.03)"/><path class="cls-1" d="M919.24,433.68c.42,0,.79.5,1.3.41.27,0,.38-.17.53-.46.52.13,1.19-.11,1.16-.69a8.84,8.84,0,0,1-3.81-.17,13.42,13.42,0,0,1-3.22-1.16c-1-.51-1.9-1.06-2.8-1.61-.67-.42-1.28-.9-1.93-1.37-.19-.15-.48-.27-.55-.53.19,0,.4.17.58.29.56.36,1.17.7,1.78,1.06,1.52.89,3.25,2.11,5.47,1.95a4.76,4.76,0,0,0,2.79-1,1.32,1.32,0,0,0-.86-.12c0-.17.26-.16.38-.21a1.51,1.51,0,0,0,.89-1c-.14-.12-.32.07-.48,0s.24-.55.1-.81c-.18,0-.28.21-.39.33a2.78,2.78,0,0,1-1.37.89c-.13-.18.15-.29.12-.53-.31,0-.53.4-.89.53a3.6,3.6,0,0,1-.94.22c-.32,0-.74.09-1-.12a1.6,1.6,0,0,0,1.27-.92,7.49,7.49,0,0,1-3.68.15,25.16,25.16,0,0,1-5.25-2,32.3,32.3,0,0,0-9.08-2.41c-.07-.09.11-.14.14-.16a13,13,0,0,1,3.81-2c1.55-.48,3.19-.93,4.64-1.52a.79.79,0,0,0-.11-.45c-1.68.57-3.48,1.14-5.25,1.66s-3.75,1.11-5.69,1.49a13.72,13.72,0,0,1-2,.39,9.4,9.4,0,0,1-1.79-.32,95.16,95.16,0,0,1-11-3.2.63.63,0,0,0-.15.43,5.35,5.35,0,0,0,1.11.44c1.1.37,2.32.73,3.47,1.08a12.34,12.34,0,0,1,3.9,2.12,33.53,33.53,0,0,0-9.05,2.43c-2.46,1-5.5,2.86-8.82,1.81a1.56,1.56,0,0,0,1.26.92c-.26.22-.71.13-1,.09a3.45,3.45,0,0,1-1.73-.75c-.11.22.19.35.12.54a1.11,1.11,0,0,1-.7-.29,7.92,7.92,0,0,1-1.06-.94c-.19.24,0,.57.07.84-.16,0-.3-.11-.48-.05.1.73.72.95,1.28,1.23-.08.1-.29,0-.49,0s-.28.11-.38.12c1.44,1.28,4,1.2,5.78.41,1.27-.57,2.45-1.38,3.66-2.07l.6-.36a1.49,1.49,0,0,1,.58-.31c0,.28-.34.39-.53.53-.61.43-1.18.91-1.83,1.32-.84.53-1.74,1-2.65,1.54a12.45,12.45,0,0,1-3,1.18,9.4,9.4,0,0,1-4.31.29c-.08.52.48.82,1.1.7.2.26.26.41.56.46.51.08.87-.4,1.3-.41.21,0,.43.1.46.26.1.5-.52.47-.94.53a2.18,2.18,0,0,0-1.23.78c-.41.47-.43,1.22-.89,1.63.67-.12,1.57.06,2.07-.21s.72-1.49,1.42-1.69.56.44.24.77-1.14,1.11-.17,1.32c-.38.52,0,1.11.44,1.35a5,5,0,0,1,.4-1.83,11.06,11.06,0,0,1,.77-1.54,12.53,12.53,0,0,1,1-1.27,30.83,30.83,0,0,1,3.56-3.38,17.27,17.27,0,0,1,2-1.51,2.45,2.45,0,0,1,.74-.37c-.06.23-.31.28-.48.39a17.31,17.31,0,0,0-3.06,2.94c-.53.61-1,1.2-1.52,1.9a5.48,5.48,0,0,0-1.17,2.24,1.79,1.79,0,0,0,1,1.76,1,1,0,0,0,1,1.08c-.84-1.06-.29-3.07.26-4.28a9.85,9.85,0,0,1,.8-1.59,1.73,1.73,0,0,1,.36-.44,4.23,4.23,0,0,1-.34.72,4.07,4.07,0,0,0-.19,2.77,1.5,1.5,0,0,0,1,.95,2.28,2.28,0,0,0,1.71-.27,1.61,1.61,0,0,0,1.86-1.11c-.22,0-.37.17-.58.22a2.31,2.31,0,0,1-1.35-.15,3,3,0,0,1-1.06-1,4.24,4.24,0,0,1,.36-3.2,1.91,1.91,0,0,1,.44-.65c.13.05,0,.23,0,.39s.1.19.12.31a1,1,0,0,0,1-.05c0-.1-.14-.08-.17-.15a.58.58,0,0,0,.29-.5c-.15,0-.25.32-.56.26a.41.41,0,0,1-.12-.45,4.32,4.32,0,0,1,1.28-1.93,3.31,3.31,0,0,1,.6-.58,3.78,3.78,0,0,1,.6-.5c0,.12-.11.19-.19.31a2,2,0,0,0-.31,1.37.77.77,0,0,0,1.08.44.84.84,0,0,0,1.28-.37,1.06,1.06,0,0,1-1.54-1.15,2.45,2.45,0,0,1,1-1.4,10.74,10.74,0,0,1,3.33-1.18,23.37,23.37,0,0,1,2.79-.55,4.67,4.67,0,0,1,1-.12c.16,0,.38.28.53.41a10.91,10.91,0,0,1,2.19,2.5,4.33,4.33,0,0,1,.6,1.28,3.42,3.42,0,0,1-.79,2.86,3.52,3.52,0,0,1-2.46,1.28,3.29,3.29,0,0,1-2.5-.7,2.67,2.67,0,0,1-.83-2.43,2.52,2.52,0,0,1,3.06-1.9.79.79,0,0,0-1.15-.53c0-.11.14-.17.24-.27a1,1,0,0,0,.29-.89c-.46.35-1.39.39-1.64,1.13-.11.32-.15.89-.46.84-.15,0-.19-.28-.14-.5s.37-.68.36-1.06c0-.2-.1-.28-.12-.46-.21,1.2-1.08,1.66-1.18,2.92a4.47,4.47,0,0,0,.22,1.71,4.86,4.86,0,0,0,.57,1.35,3.3,3.3,0,0,0,2.58,1.27,4,4,0,0,0,4.41-3.22,4.09,4.09,0,0,0,4.17,3.25,3.22,3.22,0,0,0,3.29-2.27,4.14,4.14,0,0,0,0-3.15c-.12-.22-.23-.45-.36-.68a2.44,2.44,0,0,1-.45-1.18c-.55.7.6,1.43.07,2-.44-.15-.38-.63-.51-.93-.27-.62-1-.65-1.59-1.06-.13.51.31,1,.56,1.18a.82.82,0,0,0-1.18.5,2.43,2.43,0,0,1,2.26.61,2.32,2.32,0,0,1,.82,1.46c.14,2-1.27,3.14-3.35,3a3.54,3.54,0,0,1-2.38-1.2,3.48,3.48,0,0,1-.92-2.65,3.53,3.53,0,0,1,.56-1.4,11.58,11.58,0,0,1,2.23-2.63c.14-.12.37-.39.53-.43a5.17,5.17,0,0,1,1.3.15c.46.06.88.12,1.26.19a16.74,16.74,0,0,1,4.38,1.35,2.2,2.2,0,0,1,1.35,1.83,1.07,1.07,0,0,1-1.54.89c0,.44.92.76,1.23.36a.82.82,0,0,0,1.08-.34c.27-.61-.26-1.42-.53-1.76.19,0,.29.19.41.29.39.37.8.71,1.18,1.14a4.92,4.92,0,0,1,.65.91c.17.3.46.73.19,1.11-.33,0-.4-.17-.58-.29a.52.52,0,0,0,.27.5c0,.13-.14.06-.14.15a.78.78,0,0,0,1,.07c.21-.2.09-.48.12-.7.17,0,.18.21.24.32a5.19,5.19,0,0,1,.72,2,4.22,4.22,0,0,1,0,1,2.34,2.34,0,0,1-1.28,1.59,2.19,2.19,0,0,1-1.9-.1,1.58,1.58,0,0,0,1.83,1.13,2.19,2.19,0,0,0,2.14.1c1-.67.84-2.63.34-3.69-.09-.19-.27-.34-.29-.55.13,0,.15.15.19.22a7.75,7.75,0,0,1,.53.82,12,12,0,0,1,.54,1.25c.43,1,1,2.81.33,3.78a1.74,1.74,0,0,1-.12.14c0,.06-.11.05,0,.1h.12a1.11,1.11,0,0,0,.84-1.08c.37-.35.83-.55,1-1.11.28-1-.47-1.94-.92-2.6a25.76,25.76,0,0,0-3.32-3.9,11,11,0,0,0-1.47-1.23c-.17-.12-.42-.2-.48-.41a2,2,0,0,1,.72.36,17.68,17.68,0,0,1,1.93,1.45c.81.65,1.59,1.4,2.35,2.12a17,17,0,0,1,2.13,2.38,9.39,9.39,0,0,1,.79,1.44,5.49,5.49,0,0,1,.56,2.15c.33-.19.83-.83.43-1.35.49-.05.54-.45.31-.82s-.49-.46-.65-.72-.19-.62.29-.58.87.9,1.16,1.32c.48.72,1.43.51,2.43.61-.35-.35-.43-.94-.7-1.4a2.18,2.18,0,0,0-1.4-1c-.12,0-.26,0-.41,0-.32-.05-.59-.28-.53-.53A.46.46,0,0,1,919.24,433.68Zm-21.75-8.4a8.68,8.68,0,0,0-2.55,3.68,10.38,10.38,0,0,0-3-4.12c.75-.09,1.47-.19,2.26-.33a3.56,3.56,0,0,1,.75-.15c1,.14,2,.43,3,.48C897.84,425,897.64,425.14,897.49,425.28ZM921,378.69a10.91,10.91,0,0,0,1.47.31,3.56,3.56,0,0,1,1.21.56,2.54,2.54,0,0,1,.66,1.1,2,2,0,0,1-.58-.24,4.71,4.71,0,0,0-3.36-.17c.92.75,1.13,2,2.31,2.28.69.19,1.19-.14,1.85-.26s1.4.56,1.78,1a16.56,16.56,0,0,1,1,1.34,4.31,4.31,0,0,1-1.59-.88,3.22,3.22,0,0,0-2-.68c-1,.09-1.22.88-2.12,1.08a4,4,0,0,0,2.24,1c.66,0,1.1-.5,1.71-.56H926a2.65,2.65,0,0,1,1.63.76,8.55,8.55,0,0,1,1,1.9,7.8,7.8,0,0,1,.53,1.65c0,.18.06.28.1.51-.31-.47-.49-1.07-.8-1.58a2.83,2.83,0,0,0-1.73-1.44,3.38,3.38,0,0,0-1.39,0c-.61.12-1.21.79-2,.51a3,3,0,0,0,1,1.15,3.41,3.41,0,0,0,1.69.31,6.76,6.76,0,0,1,1.14-.12,2.84,2.84,0,0,1,2.32,2.73,9.51,9.51,0,0,1-.08,2.43,2.2,2.2,0,0,1-.12.78c-.34-.17-.15-.66-.15-1a3.42,3.42,0,0,0-.19-1.39,4.11,4.11,0,0,0-2.56-2.51c.73.93.46,2.57,1,3.61a4,4,0,0,0,1.67,1.6,7.89,7.89,0,0,1-.36,3.22,12.22,12.22,0,0,1-.73,2c-.09.17-.23.5-.42.48s-.27-.64-.24-1c.1-1.13.71-2,.8-3.06a1.68,1.68,0,0,0-.56-1.54c-.2.23-.23.65-.44.88-.18-.88,0-1.83-.21-2.61a5.93,5.93,0,0,0-.76-1.29c-.05.16,0,.39-.19.44-.15-.14-.11-.33-.17-.49-.3-.68-1.08-1-1.39-1.56a1.34,1.34,0,0,0,.15,1.1.68.68,0,0,0-.78.78c0,.11.2.18.26.29s0,.3.17.42a.36.36,0,0,0,.42,0c-.06-.14-.21-.24-.2-.41a.48.48,0,0,1,.34-.32c.34,0,.75.37,1,.61a5.87,5.87,0,0,1,1.2,3.41c0,1,0,2,0,3a9.49,9.49,0,0,1-.24,2.83c-.23-.12-.34-.48-.42-.78a2.64,2.64,0,0,1-.17-1.19c.1-.31.22-.56.3-.88a7.26,7.26,0,0,0,.19-.95,6.12,6.12,0,0,0-.53-2.75,2.82,2.82,0,0,0-.44,2.43c.16.4.42.67.39,1.15a2.78,2.78,0,0,1-.22.73c-.13-.08-.18-.25-.25-.37a3,3,0,0,1-.46-1.36,13.37,13.37,0,0,0,.12-1.9c-.16-1-1-1.38-1.19-2.29a6.72,6.72,0,0,0-.24,2.31,5.17,5.17,0,0,0,.53,1.49c.25.46.52.86.73,1.24-.23-.14-.28-.35-.51-.46a1.83,1.83,0,0,0-1.22-.17.63.63,0,0,0,.15,1.21c-.32-.38.09-.73.51-.7.72.05,1.3.84,1.61,1.41,1,1.83,1.17,5.45.78,7.77a1.56,1.56,0,0,0,1.48-1,29.93,29.93,0,0,0,2.61-5.29,11.56,11.56,0,0,1,.95-2.19,1.48,1.48,0,0,1,.58-.56c.14-.05.24,0,.27,0a.33.33,0,0,0-.27-.52c-.47,0-.8.58-1,.93-.68,1.26-1,2.84-1.8,3.92.74-1.2.76-2.94,1.1-4.51a8.31,8.31,0,0,1,1.19-3,1.3,1.3,0,0,1,.78-.6c.15.09,0,.35,0,.46.79.1.7-.9,0-.95s-1.48,1.12-1.72,1.85a2.64,2.64,0,0,1-.25.75,3.15,3.15,0,0,1,.08-1,10.94,10.94,0,0,1,.36-2,4.29,4.29,0,0,1,.66-1.43,2.5,2.5,0,0,1,.41-.47c.23-.16.86-.48.9.05,0,.17-.11.24-.14.37a.49.49,0,0,0,.66-.27c.2-.7-.66-.71-.66-.71s0-.16-.08-.17a2.74,2.74,0,0,0-1.7,1.51,6.24,6.24,0,0,0-.68,1.71c-.3,1.28-.29,2.79-.54,4.19s-.49,2.74-.8,4a7.27,7.27,0,0,1-.64,1.75,4.64,4.64,0,0,1-.51.68,1.13,1.13,0,0,1-.63.49,6.38,6.38,0,0,1,.17-2.83c.26-.74.76-1.5,1-2.36a25.82,25.82,0,0,0,.8-2.6,33.7,33.7,0,0,0,.73-4.29,3.62,3.62,0,0,1,.29-1.46c.26-.44.65-.72.9-1.1a4.56,4.56,0,0,0,.95-3c0-.31,0-.62-.07-.93a8.49,8.49,0,0,1-.17-1.51,8.61,8.61,0,0,0-1.29,2.27,8.31,8.31,0,0,0-.12,2.46c0,.53.17,1-.27,1.33-.22-.19-.19-.56-.27-.87a14.84,14.84,0,0,1-.34-3,15.22,15.22,0,0,1,.15-1.92,3.93,3.93,0,0,1,.19-.93c.22-.56.59-1.26,1.27-.87,0-.57-.8-.77-1.22-.56-.86.43-.8,2.48-.7,3.7,0,.17,0,.24,0,.46-.15-.34-.21-.47-.28-.64-.19-.43-.28-.64-.5-1.06a4.38,4.38,0,0,1-.32-.66c0-.24.18-.56.25-.76a3.43,3.43,0,0,0-1.1-3.7,4.89,4.89,0,0,0-.63-.41,4.93,4.93,0,0,1-.66-.37c-.24-.19-.28-.45-.56-.68.33.85.18,1.94.66,2.58a16,16,0,0,0,1.26,1.19,2.09,2.09,0,0,1,.69,1.17c0,.13.07.37,0,.51a1.3,1.3,0,0,1-.41-.46c-.25-.35-.53-.67-.81-1s-.73-1-1.22-1.51a3.61,3.61,0,0,1-.82-1,2.8,2.8,0,0,1-.1-.68,2.88,2.88,0,0,0-1.54-2.24,2.41,2.41,0,0,0-1.12-.39c-.65,0-1.36.33-2,.12A3,3,0,0,0,921,378.69Zm-63.72,13.76c0-.13-.16-.2-.15-.37.05-.53.68-.21.9-.05a2.51,2.51,0,0,1,.42.47,4.49,4.49,0,0,1,.66,1.43,10.94,10.94,0,0,1,.36,2,2.89,2.89,0,0,1,.07,1,3,3,0,0,1-.24-.75c-.24-.73-.92-1.91-1.73-1.85s-.76,1,0,.95c0-.11-.1-.37,0-.46a1.27,1.27,0,0,1,.78.6,8.32,8.32,0,0,1,1.2,3c.33,1.57.35,3.31,1.09,4.51-.84-1.08-1.12-2.66-1.8-3.92-.19-.35-.53-.94-1-.93a.33.33,0,0,0-.27.52c0-.07.14-.08.27,0a1.44,1.44,0,0,1,.59.56,12.24,12.24,0,0,1,1,2.19,30.6,30.6,0,0,0,2.6,5.29,1.59,1.59,0,0,0,1.49,1c-.39-2.32-.2-5.94.78-7.77.3-.57.88-1.36,1.61-1.41.42,0,.83.32.51.7a.64.64,0,0,0,.14-1.21,1.85,1.85,0,0,0-1.22.17c-.22.11-.27.32-.51.46.21-.38.49-.78.73-1.24a5.5,5.5,0,0,0,.54-1.49,6.72,6.72,0,0,0-.24-2.31c-.21.91-1,1.29-1.2,2.29a17.15,17.15,0,0,0,.12,1.9,2.92,2.92,0,0,1-.46,1.36c-.06.12-.11.29-.24.37a2.45,2.45,0,0,1-.22-.73,2.33,2.33,0,0,1,.39-1.15,2.82,2.82,0,0,0-.44-2.43,6.26,6.26,0,0,0-.54,2.75,7.27,7.27,0,0,0,.2.95,9.06,9.06,0,0,0,.29.88,2.51,2.51,0,0,1-.17,1.19c-.08.3-.18.66-.41.78a9.15,9.15,0,0,1-.25-2.83c0-1-.07-2,0-3a5.93,5.93,0,0,1,1.19-3.41c.21-.24.62-.65,1-.61a.45.45,0,0,1,.34.32c0,.17-.14.27-.19.41a.34.34,0,0,0,.41,0c.14-.12.1-.29.17-.42s.25-.18.27-.29a.69.69,0,0,0-.78-.78,1.42,1.42,0,0,0,.15-1.1c-.31.57-1.1.88-1.39,1.56-.07.16,0,.35-.17.49-.16-.05-.14-.28-.2-.44a5.91,5.91,0,0,0-.75,1.29c-.22.78,0,1.73-.22,2.61-.21-.23-.23-.65-.44-.88a1.68,1.68,0,0,0-.56,1.54c.1,1,.71,1.93.8,3.06,0,.36,0,1-.24,1s-.32-.31-.41-.48a11.36,11.36,0,0,1-.73-2,7.72,7.72,0,0,1-.37-3.22,4.05,4.05,0,0,0,1.68-1.6c.57-1,.29-2.68,1-3.61a4.07,4.07,0,0,0-2.56,2.51,3.26,3.26,0,0,0-.2,1.39c0,.31.2.8-.14,1a2,2,0,0,1-.12-.78,9.08,9.08,0,0,1-.08-2.43,2.82,2.82,0,0,1,2.31-2.73,6.88,6.88,0,0,1,1.15.12,3.35,3.35,0,0,0,1.68-.31,3.05,3.05,0,0,0,1-1.15c-.81.28-1.42-.39-2-.51a3.38,3.38,0,0,0-1.39,0,2.8,2.8,0,0,0-1.73,1.44c-.32.51-.49,1.11-.8,1.58,0-.23.06-.33.09-.51a7.26,7.26,0,0,1,.54-1.65,8.54,8.54,0,0,1,1-1.9,2.7,2.7,0,0,1,1.63-.76h.42c.6.06,1.05.57,1.7.56a3.94,3.94,0,0,0,2.24-1c-.9-.2-1.15-1-2.11-1.08a3.25,3.25,0,0,0-2,.68,4.27,4.27,0,0,1-1.58.88,14.49,14.49,0,0,1,1-1.34c.37-.41,1-1.11,1.78-1s1.16.45,1.85.26c1.18-.31,1.39-1.53,2.31-2.28a4.71,4.71,0,0,0-3.36.17,2,2,0,0,1-.59.24,2.64,2.64,0,0,1,.66-1.1,3.78,3.78,0,0,1,1.22-.56,10.44,10.44,0,0,0,1.46-.31,3,3,0,0,0,1.17-1.05c-.63.21-1.34-.14-2-.12a2.45,2.45,0,0,0-1.12.39,2.87,2.87,0,0,0-1.53,2.24,2.8,2.8,0,0,1-.1.68,3.66,3.66,0,0,1-.83,1c-.49.53-.82,1-1.21,1.51s-.56.67-.81,1a1.3,1.3,0,0,1-.41.46c-.13-.14-.07-.38,0-.51a2.14,2.14,0,0,1,.68-1.17,16.17,16.17,0,0,0,1.27-1.19c.47-.64.33-1.73.66-2.58-.28.23-.32.49-.56.68a4.93,4.93,0,0,1-.66.37,5.84,5.84,0,0,0-.64.41,3.41,3.41,0,0,0-1.09,3.7c.07.2.29.52.24.76a4.26,4.26,0,0,1-.31.66c-.23.42-.31.63-.51,1.06l-.27.64c0-.22,0-.29,0-.46.09-1.22.15-3.27-.7-3.7-.42-.21-1.22,0-1.22.56.68-.39,1.05.31,1.26.87a3.94,3.94,0,0,1,.2.93,15.22,15.22,0,0,1,.14,1.92,14.14,14.14,0,0,1-.34,3c-.07.31,0,.68-.26.87-.44-.29-.31-.8-.27-1.33a5.44,5.44,0,0,0-1.42-4.73A8.49,8.49,0,0,1,858,387c0,.31,0,.62-.07.93a4.61,4.61,0,0,0,.95,3c.26.38.65.66.9,1.1a3.45,3.45,0,0,1,.3,1.46,35.55,35.55,0,0,0,.72,4.29c.2.86.52,1.74.81,2.6s.78,1.62,1,2.36a6.23,6.23,0,0,1,.18,2.83,1.15,1.15,0,0,1-.64-.49,6.7,6.7,0,0,1-.51-.68,7.25,7.25,0,0,1-.63-1.75c-.31-1.23-.56-2.6-.8-4s-.24-2.91-.54-4.19a6.24,6.24,0,0,0-.68-1.71,2.73,2.73,0,0,0-1.71-1.51c-.12,0,0,.15-.07.17s-.86,0-.66.71A.49.49,0,0,0,857.29,392.45Zm9.08,18.29a5,5,0,0,1-.63-1.17,4.16,4.16,0,0,0-.78-1c-.18-.16-.43-.41-.75-.32-.06.11,0,.3-.13.37-.48-.46-1.9-.62-2.11.19a5.82,5.82,0,0,1,3.57,2.34c.39.46.76.91,1.1,1.39a11.8,11.8,0,0,0,2.44,2.5,34.83,34.83,0,0,0,3,2,18.41,18.41,0,0,0,2.82,1.48c.13,0,.35,0,.42.22-1.12-.07-1.28,1.24-.71,1.85.76.81,2.24-.17,3.07.2.15.06.28.24.41.29-.25-.33-.62-.89-1.17-.85-.17,0-.3.15-.46.05s.19-.3,0-.47c-.57-.23-.66.54-1.05.59s-.58-.48-.39-.83a1.3,1.3,0,0,1,.92-.44,3.15,3.15,0,0,1,1.54.34c.38.14.75.25,1.09.39l2.07.85a.59.59,0,0,0,.13-.29,29.76,29.76,0,0,1-3.88-2.48,12,12,0,0,1-3.21-3.17.77.77,0,0,0-.2.32,1.1,1.1,0,0,0,0,.66c.15.52,1,.71.88,1.31a.44.44,0,0,1-.3.29c-.51.14-.88-.37-1.09-.65a3.54,3.54,0,0,1-.68-1.34c-.08-.35-.06-.73-.15-1.13a2.8,2.8,0,0,0-1-1.5,6.12,6.12,0,0,0-.24,1.19c.09.91,1.36,1.3,1.22,2.24a1.58,1.58,0,0,1-.74-.29,2.87,2.87,0,0,1-1-1.44,9.74,9.74,0,0,1,0-1.87,2.64,2.64,0,0,0-1.61-2.61,3.44,3.44,0,0,0,.34,2.31c.19.37.53.66.58,1.1-.45.36-.86-.22-1-.59-.31-1-.33-2.16-1-2.89-.41-.44-1-.69-1.39-1.12a4.38,4.38,0,0,1-1.07-2.34,4,4,0,0,1,.17-1.17,3.56,3.56,0,0,1,3.92-2.92,1.1,1.1,0,0,0-1-.76c-.34,0-.58.23-.88.22a1.64,1.64,0,0,0,.61-1.78,1.69,1.69,0,0,1-.64.49c-.69.36-1.26.68-1.43,1.49-.09.42,0,1.06-.54,1.31-.73-.44.11-1.48,0-2.24a1.35,1.35,0,0,0-.31-.68,3.32,3.32,0,0,1-.34,1.61l-.44,1.14c-.8,2.13.35,4.58,1.49,5.73.25.25.55.47.8.77a2.54,2.54,0,0,1,.44.73C867.34,411,866.7,411,866.37,410.74Zm5.63-6.65c-.93.11-1.26-.55-2.17-.61a2.09,2.09,0,0,0-2,1.1c-.09.15-.11.27-.2.41l0,0,0,0s-.11.13-.14.12-.26-.7-.36-.49a4.61,4.61,0,0,1-.08,1.15c-.05,1.23.85,1.78,1.47,2.48,0,.09.24.14.17.27A5.08,5.08,0,0,0,867,407.4c-.1,0-.2,0-.29-.07-.31-.17-.44-.48-.66-.76.34,1.65,1.52,2.28,2.9,2.85,1.22.51,2.52.84,3.29,1.8,0,.2.26.29.19.49s-.28-.14-.44-.22a1.59,1.59,0,0,0-1.19-.07c.15.17.37.29.51.46.33.41.48.89.76,1.27a3.05,3.05,0,0,0,2.09,1.14,5.2,5.2,0,0,0,1.29,1.83,17.51,17.51,0,0,0,1.68,1.44,16.29,16.29,0,0,0,3.88,2.36.63.63,0,0,0,.12-.32,11,11,0,0,1-3.1-2.38,9,9,0,0,1-1.21-1.51,3.19,3.19,0,0,1-.69-2,.52.52,0,0,1,.52-.34c.36.06.33.61.17.91.07.19.32.22.53.21-.17.46.18.75.54.83-.28-.51-.14-1.4-.42-2a1.36,1.36,0,0,0-1.34-.68,1.23,1.23,0,0,0-.8,1.77c.14.26.4.36.46.69-.16.35-.61,0-.75-.2a3.69,3.69,0,0,1-.68-1.34c-.16-.51-.17-1.1-.37-1.68-.32-.95-1-1.43-1.29-2.19a1.75,1.75,0,0,0,0,.88c.05.17.27.37.1.51-1.14-1.75-4.07-1.91-4.36-4.41a1.52,1.52,0,0,1,1-1.78,1.6,1.6,0,0,1,1.73.73c.23.55.07,1.17-.41,1.27a.9.9,0,0,1-.74-.27.92.92,0,0,0,1.42.93c.05.54.49.71,1,.78.09-.18-.13-.38,0-.52.31.32.54.71,1.17.71a3.18,3.18,0,0,1-1.12-1.75c-.21-.76-.36-1.81-.88-2.19-.12-.09-.29-.05-.32-.25C871.61,404.29,871.93,404.36,872,404.09Zm23.76,30.24c-.11-.14-.58-.59-.77-.53a1.63,1.63,0,0,0-.92.92c-.28.67-.32,1.29-1.08,1.42.33.28.63-.08.87-.07s.23-.54.5-.65c.41.22,0,.57-.21.84a1.12,1.12,0,0,0-.2,1.16c.37-.06.31-.55.58-.7.17.28-.12.53,0,.86s.51.48.61.78c.08-.3.41-.41.5-.68s-.21-.6-.09-1c.42-.08.21.68.62.7a4.57,4.57,0,0,0,.1-.48c0-.57-.75-.83-.7-1.23a.26.26,0,0,1,.24-.22c.29,0,.21.69.55.75.23-.09.43.15.7,0-.09-.14-.25-.12-.36-.2C896.2,435.72,896.1,434.77,895.76,434.33Zm3.3.68c-1.11.41-1.3-1-2.19-1.16a1.61,1.61,0,0,0-.82.15c.61.25.5,1.23,1,1.63,0-.05,0-.15,0-.17.12.33.46.44.89.46,0-.67-.8-.47-.87-1,.47-.38.74.91,1.35.43C898.68,435.6,899.07,435.23,899.06,435Zm-5-1a1.61,1.61,0,0,0-.82-.15c-.89.12-1.08,1.57-2.19,1.16,0,.22.38.59.65.31.61.48.89-.81,1.35-.43-.07.56-.91.36-.87,1,.43,0,.77-.13.89-.46.06,0,0,.12,0,.17C893.57,435.23,893.46,434.25,894.07,434Zm-12.93-12.69c.17.06.44-.31.61-.82s.16-1,0-1-.44.32-.6.83S881,421.26,881.14,421.31Zm43.24-10.18a5.84,5.84,0,0,1,3.58-2.34c-.21-.81-1.63-.65-2.12-.19-.09-.07-.07-.26-.12-.37-.32-.09-.57.16-.75.32a3.93,3.93,0,0,0-.78,1,5,5,0,0,1-.64,1.17c-.33.3-1,.27-.8-.42a2.33,2.33,0,0,1,.44-.73c.25-.3.55-.52.8-.77,1.14-1.15,2.29-3.6,1.49-5.73L925,402a3.21,3.21,0,0,1-.34-1.61,1.46,1.46,0,0,0-.32.68c-.08.76.76,1.8,0,2.24-.53-.25-.45-.89-.54-1.31-.17-.81-.75-1.13-1.44-1.49a1.66,1.66,0,0,1-.63-.49,1.62,1.62,0,0,0,.61,1.78c-.3,0-.54-.23-.88-.22a1.09,1.09,0,0,0-1,.76,3.56,3.56,0,0,1,3.92,2.92,4.36,4.36,0,0,1,.17,1.17,4.53,4.53,0,0,1-1.07,2.34c-.4.43-1,.68-1.39,1.12-.69.73-.71,1.89-1,2.89-.12.37-.52.95-1,.59.06-.44.4-.73.59-1.1a3.5,3.5,0,0,0,.34-2.31,2.62,2.62,0,0,0-1.61,2.61,10.62,10.62,0,0,1,0,1.87,2.82,2.82,0,0,1-1,1.44,1.54,1.54,0,0,1-.73.29c-.15-.94,1.13-1.33,1.22-2.24a6.12,6.12,0,0,0-.24-1.19,2.74,2.74,0,0,0-1,1.5c-.1.4-.07.78-.15,1.13a3.54,3.54,0,0,1-.68,1.34c-.21.28-.58.79-1.1.65a.44.44,0,0,1-.29-.29c-.1-.6.72-.79.88-1.31a1.2,1.2,0,0,0,0-.66.76.76,0,0,0-.19-.32A11.85,11.85,0,0,1,913,417.9a29.65,29.65,0,0,1-3.87,2.48.69.69,0,0,0,.12.29l2.07-.85c.35-.14.72-.25,1.1-.39a3.11,3.11,0,0,1,1.53-.34,1.31,1.31,0,0,1,.93.44c.19.35,0,.87-.39.83s-.48-.82-1-.59c-.16.17.11.4,0,.47s-.29,0-.46-.05c-.55,0-.91.52-1.17.85.14-.05.27-.23.42-.29.83-.37,2.31.61,3.07-.2.57-.61.41-1.92-.71-1.85.07-.17.28-.17.41-.22a18.07,18.07,0,0,0,2.83-1.48,34.83,34.83,0,0,0,3-2,11.8,11.8,0,0,0,2.44-2.5C923.63,412,924,411.59,924.38,411.13Zm-12.52,6.09a10.82,10.82,0,0,1-3.09,2.38.49.49,0,0,0,.12.32,16.22,16.22,0,0,0,3.87-2.36,15.37,15.37,0,0,0,1.68-1.44,5.1,5.1,0,0,0,1.3-1.83,3.07,3.07,0,0,0,2.09-1.14c.28-.38.42-.86.75-1.27.15-.17.37-.29.52-.46a1.61,1.61,0,0,0-1.2.07c-.15.08-.25.27-.43.22s.18-.29.19-.49c.77-1,2.07-1.29,3.29-1.8,1.38-.57,2.56-1.2,2.9-2.85-.23.28-.35.59-.66.76-.09.05-.19,0-.29.07a5,5,0,0,0-1.71,1.12c-.07-.13.13-.18.17-.27.62-.7,1.51-1.25,1.46-2.48a5.11,5.11,0,0,1-.07-1.15c-.1-.21-.28.47-.37.49s-.11-.1-.13-.13v0s0,0,0,0-.11-.26-.21-.4a2.06,2.06,0,0,0-1.94-1.1c-.91.06-1.24.72-2.17.61.07.27.38.2.58.24,0,.2-.2.16-.31.25-.52.38-.67,1.43-.88,2.19a3.24,3.24,0,0,1-1.12,1.75c.62,0,.86-.39,1.17-.71.12.14-.1.34,0,.52.53-.07,1-.24,1-.78a.91.91,0,0,0,1.41-.93.87.87,0,0,1-.73.27c-.48-.1-.64-.72-.41-1.27a1.6,1.6,0,0,1,1.73-.73,1.53,1.53,0,0,1,1,1.78c-.29,2.5-3.22,2.66-4.36,4.41-.18-.14.05-.34.1-.51a1.75,1.75,0,0,0,.05-.88c-.24.76-1,1.24-1.29,2.19-.2.58-.21,1.17-.37,1.68a3.69,3.69,0,0,1-.68,1.34c-.14.16-.59.55-.76.2.06-.33.32-.43.47-.69a1.23,1.23,0,0,0-.81-1.77,1.37,1.37,0,0,0-1.34.68c-.27.57-.13,1.46-.41,2a.63.63,0,0,0,.54-.83c.21,0,.45,0,.53-.21-.17-.3-.19-.85.17-.91a.5.5,0,0,1,.51.34,3.13,3.13,0,0,1-.68,2A8.55,8.55,0,0,1,911.86,417.22Zm-3.68,2.24c-.17.06-.17.51,0,1s.44.88.61.82.17-.51,0-1S908.35,419.41,908.18,419.46ZM894.31,362.6c.31,0,.37-.14.61-.28.21.11.29.23.54.25,1.12.08,1.3-1.33,2.27-1.48a1.07,1.07,0,0,0-1.94-.36c-.1.15-.14.49-.4.43-.28-.64.72-.81.72-1.51s-.89-1-1.23-1.59c0,0,0,0,0,0s0,0,0,0c-.34.63-1.35.91-1.08,1.84.14.47.72.72.58,1.3-.38-.13-.28-.61-.62-.83a1,1,0,0,0-1.58.68,1.71,1.71,0,0,1,.5.26C893.15,361.68,893.32,362.67,894.31,362.6Zm-9.54,6.71a1.39,1.39,0,0,0-.14.87,1,1,0,0,0,1-.58c.67.55,1.58,0,2.38,0a.61.61,0,0,0-.29-.82c.63-.16,1.3-.64,1-1.41-.1-.14-.17.16-.25,0,0-1-1.75-1.25-1.87-.22.45-.08.87.27.72.68-.08.21-.51.38-.8.37a1.12,1.12,0,0,1-1-1.09c0-1,1.13-1.77,2.2-1.73a3.75,3.75,0,0,1,2.38,1.08,3.21,3.21,0,0,1,.94,2.53,3.84,3.84,0,0,1,7.57.11,3.56,3.56,0,0,1,2.92-3.68c1.15-.16,2.44.54,2.52,1.48a1.09,1.09,0,0,1-1.26,1.26c-.57-.14-.66-1.08.25-.94,0-1.1-2-.86-1.87.18-.07,0-.24-.2-.25,0-.27.67.34,1.25,1,1.37a.78.78,0,0,0-.29.93c.81-.14,1.88.49,2.38-.18a1.41,1.41,0,0,0,.87.69H905a1.1,1.1,0,0,0-.11-.94,4.15,4.15,0,0,0,.68-1.66v-.36c-.07-2.3-2.83-3.13-4.79-2.09a4.88,4.88,0,0,0-2.6,3.14,3.2,3.2,0,0,1-2-.9,2.71,2.71,0,0,1-.14-3.57c.51-.56,1.94-.95,2.52-.08-.14.22-.23.35-.43.4-.43.1-.77-.24-.94-.22a.56.56,0,0,0-.43.58c0,.71.87,1,1.58,1a1.45,1.45,0,0,0,1.37-1.91c-.36-1-1.91-1.36-3.09-.86a2.74,2.74,0,0,0-1.64,2.08c-.18-.36-.2-.45-.31-.68a3.05,3.05,0,0,0-3.54-1.44,1.63,1.63,0,0,0-1.11,1.41,1.61,1.61,0,0,0,1.22,1.44c.78.13,1.82-.21,1.84-.9,0-.26-.19-.63-.47-.65s-.3.24-.65.25-.49-.14-.72-.39a1.49,1.49,0,0,1,1.59-.54,2.14,2.14,0,0,1,1.15.79,2.72,2.72,0,0,1-2.34,4.18c-.57-1.82-2.86-3.95-5.23-3.53a2.59,2.59,0,0,0-2.16,2,3,3,0,0,0-.08.76A3.82,3.82,0,0,0,884.77,369.31ZM875.58,456c.1-.08.2-.15.12-.27s-.22-.05-.3,0c-.59.44-1.56,1.18-2.35,1.71s-2,1.27-2.41,1.12.15-.74.92-1.54a59,59,0,0,1,5-4.3,3.21,3.21,0,0,0-1,.08,9.76,9.76,0,0,0-2.08,1.25c1-.78.87-1.27.55-1.44-1.07-.53-4.39.93-6.35,2.65a7.91,7.91,0,0,0-1.16,1.24c-.68.49-1.33.93-1.84,1.24-1.12.65-1.76.95-2.08.78-.57-.28,1.41-2.25,3.42-4a57.71,57.71,0,0,1,7.44-5.8,9.82,9.82,0,0,1,5-1.74,4,4,0,0,1,2.75.93c.1.11.25.24.32.21a.28.28,0,0,0,.23-.33c-.33-.94-2.09-1.17-3.13-1.15a14.58,14.58,0,0,0-6.27,2.06,51.13,51.13,0,0,0-7,5.06A30.83,30.83,0,0,0,863,456c-.57.43-1.29,1-1.91,1.38s-2,1.27-2.41,1.12.15-.74.92-1.54a57.87,57.87,0,0,1,5-4.3,3.16,3.16,0,0,0-1,.08,9.52,9.52,0,0,0-2.08,1.25c1-.78.86-1.27.54-1.44-1.06-.53-4.39.93-6.35,2.65-1.71,1.48-2.77,3.66-1.09,3.66.8,0,2.13-.76,3.57-1.8-.91,1.17-.44,1.8.4,1.8a6.94,6.94,0,0,0,2.65-1.27l.89-.64,0,0c-.77,1.08-.59,1.75.07,1.9a4.43,4.43,0,0,0,2.56-.91c.38-.23.84-.54,1.3-.85-.52.95-.51,1.74.51,1.74a8.18,8.18,0,0,0,3.57-1.8c-.92,1.17-.45,1.8.4,1.8a6.94,6.94,0,0,0,2.65-1.27C873.87,457.21,874.86,456.49,875.58,456Zm-20.76,2.63c-.57-.22.62-1.59,2.13-2.84,2.63-2.14,4.54-3.2,5-2.88s-1.44,1.9-2.4,2.75C857.45,457.46,855.27,458.76,854.82,458.59Zm11.93,0c-.57-.22.62-1.59,2.13-2.84,2.63-2.14,4.54-3.2,5-2.88s-1.44,1.9-2.41,2.75C869.38,457.46,867.19,458.76,866.75,458.59Zm-16.36,3a4.64,4.64,0,0,1-2.53.66,6.66,6.66,0,0,1-5.4-2.46c3.49-.7,7-2.86,11.62-7.28,1.59-1.55,3.75-4.17,6.65-6,.3.39.94,1.66-.52,3.46s-2.93,2.71-4.61,2.56a3.2,3.2,0,0,1-.55-.19c-.2-.09-.37-.13-.47,0s.15.31.4.36a5.27,5.27,0,0,0,1.06.08,6.77,6.77,0,0,0,5-2.43,3.07,3.07,0,0,0,0-4,11.42,11.42,0,0,1,5.36-1.39,5.39,5.39,0,0,1,2.5.51c.4.19.7.52.8.46s.14-.34-.15-.57a5.82,5.82,0,0,0-3.15-.72,12.71,12.71,0,0,0-5.58,1.5,6.72,6.72,0,0,0-4.44-1.39,18,18,0,0,0-8.58,2.07c-3,0-7.19,1.76-10,4.36a7.81,7.81,0,0,0-2.68,5.51c0,2.5,2.26,3.43,4.24,3.45a13.07,13.07,0,0,0,2.73-.21,7,7,0,0,0,5.75,2.64,5,5,0,0,0,2.83-.76c.15-.1.32-.3.2-.36S850.56,461.49,850.39,461.61Zm-1.91-14.5c1.17.23,2.28,1,2.16,2.29-.12,1.46-1.57,3.11-4,4.82a17.65,17.65,0,0,1-5.26,2.65c-.15-2.77,1.81-6,4.71-8.24A17.87,17.87,0,0,1,848.48,447.11Zm-9.07,12.68c-1.79,0-3.87-.78-3.87-3.15,0-1.74,2.08-4.07,2.82-4.83,2.24-2.33,5.86-4.66,8.93-4.76a13.49,13.49,0,0,0-1.61,1.05c-2.68,2.06-4.89,5.4-4.66,8.85a5.35,5.35,0,0,1-1.17.09c-1.36,0-1.91-1.1-1.29-2.06.08-.1.13-.21.05-.23s-.27.19-.35.28c-.62,1,0,2.22,1.79,2.28a7.08,7.08,0,0,0,1,0,3.31,3.31,0,0,0,.12.7,4.83,4.83,0,0,0,.62,1.53A9.41,9.41,0,0,1,839.41,459.79Zm2.08-2.18c0-.13,0-.25,0-.38a14.53,14.53,0,0,0,5.7-2.46c2.06-1.44,3.8-3.41,3.89-5.33a2.53,2.53,0,0,0-2.18-2.52,16.53,16.53,0,0,1,7.49-1.82,6.71,6.71,0,0,1,4.14,1.14,38.19,38.19,0,0,0-8,6.21c-3.3,3-6.7,5.92-10.29,7A5,5,0,0,1,841.49,457.61Zm52.56-5c-1-.46-3.9.6-5.93,2.35s-2.58,3.65-1.09,4c.92.19,2.93-.87,5.08-2.75S894.79,452.93,894.05,452.59Zm-2.21,3c-2.26,1.95-4.14,3.28-4.74,3s.5-1.57,1.94-2.86c2.28-2,4.34-3.26,4.86-2.9S892.81,454.77,891.84,455.62Zm-11.21.74c.08-.06.13-.17,0-.21s-.17,0-.22.06c-.37.32-.85.74-1.24,1a3,3,0,0,1-1.94.66c-.54,0-1.36-.22-2.18-.22a2.82,2.82,0,0,0-1.16.22c1.21-.75,3-1.61,4.24-2.27,1.63-.89,3.27-1.9,4.31-2.35a6.46,6.46,0,0,0,.84-.27c.18-.07.35-.17.3-.32s-.2-.05-.3,0l-.59.25a2.45,2.45,0,0,1-1,0,15.36,15.36,0,0,0-1.81-.42c-1.06,0-1.93.19-3.3,1.84a.13.13,0,0,0,0,.19c.05,0,.23,0,.25-.06a2.91,2.91,0,0,1,2.24-1.12c.49,0,1,.1,1.58.1a3.59,3.59,0,0,0,1.19-.17,33.8,33.8,0,0,0-8.6,4.81,4.1,4.1,0,0,0-.72.45c-.05,0-.3.27-.27.37s.19,0,.44-.14a5.25,5.25,0,0,0,.42-.34,3,3,0,0,1,.8-.11,20.28,20.28,0,0,1,2.55.47c.92.06,1.39-.13,2.8-1.23A12.05,12.05,0,0,0,880.63,456.36Zm50.86-2.86c.13.07.22.15.3.18a.42.42,0,0,0,.37-.41c0-.32-.15-.57-.57-.64-1.22-.18-3.79,1.74-5.16,2.76l-.07-.09a18.56,18.56,0,0,1,3.5-2.69,3.9,3.9,0,0,0-1.74.36,13.66,13.66,0,0,0-2.26,1.7q-.55.49-1.08,1a.41.41,0,0,0-.13.08,23.9,23.9,0,0,1-3.15,2.14,4.14,4.14,0,0,1-2.46.68c-.91-.34.82-2.18,2.36-3.41.49.25,2.33-.28,3.12-.75,1-.57,1.79-1.46,1-1.86s-3.79.93-5.68,2.46c-1.59,1.31-1.91,2.35-1.93,2.75-.1.76.47,1.08,1.11,1.14a5.72,5.72,0,0,0,3-1,19.63,19.63,0,0,0,1.65-1.08,12.66,12.66,0,0,0-1,1.33c-.12.22-.07.83.23.83a22.06,22.06,0,0,1,3.15-3c1.68-1.35,3.79-2.73,4.81-2.69A1.57,1.57,0,0,1,931.49,453.5Zm-6.15-.74c.25.17-.27.76-1.09,1.32a4.58,4.58,0,0,1-2.7,1C922.76,454,925,452.55,925.34,452.76Zm-4.19-.44c3.82-2.63,11.41-7.41,15.25-7.2a4,4,0,0,1,3,1.27.18.18,0,0,0,.15,0c.1,0,0-.13,0-.19-.3-.87-1.22-1.8-3.15-1.93-4.16-.25-10.26,3.9-16.07,7.94-.64.47-1.29.94-2,1.38a4.09,4.09,0,0,0-.17-2.67,32,32,0,0,0,2.83-2.75,8.84,8.84,0,0,0,1.53-2.24,5.69,5.69,0,0,1,1.17.36,2.4,2.4,0,0,1,.74.5c.1.07.13.15.2.11s0-.19,0-.3a2.09,2.09,0,0,0-.92-.63c-.32-.13-.66-.23-1.06-.36a1.51,1.51,0,0,0-.17-.68.48.48,0,0,0-.23-.23c-.1,0-.1.13-.15.21s-.17.36-.24.51a24.37,24.37,0,0,0-4.62-.4,23.43,23.43,0,0,0-12.47,3.59,13.48,13.48,0,0,0-5.78,7.56c-.92,3.71,1.91,5.78,5.68,5.78,5.6,0,11.28-3.47,13.37-7.49Zm-16.49,9.36c-3.2,0-6-1.68-5.08-5.4.47-1.93,2.35-4.68,5.77-7a22.91,22.91,0,0,1,12.2-3.79,20.11,20.11,0,0,1,4.1.3,11,11,0,0,1-1.49,1.8c-.69.74-1.59,1.61-2.51,2.45a4.86,4.86,0,0,0-3.92-1.54,8,8,0,0,0-6,2.62,4.07,4.07,0,0,0-.87,1.86c0,.11,0,.24.15.24s.15-.11.17-.24a4.06,4.06,0,0,1,.9-1.69,8.05,8.05,0,0,1,5.6-2.48,4.38,4.38,0,0,1,3.65,1.49c-.55.48-1.1,1-1.59,1.41-1.91,1.61-4.17,3.28-5.95,4.94-1.44,1.31-1.93,2.05-2,2.5,0,.29.15.55.6.55a10.34,10.34,0,0,0,3.89-1.53c1.59-.89,3.2-2,4.91-3.13C914.61,459.22,909.1,461.68,904.66,461.68Zm7.46-3.9c-1.91,1.21-3.19,1.61-3.47,1.55s-.17-.09-.15-.22c.1-.38.8-.95,2.11-2,1.74-1.31,3.65-2.83,5.38-4.27.62-.53,1.27-1.1,1.89-1.66a3.76,3.76,0,0,1-.08,2.8C915.79,455.41,913.79,456.77,912.12,457.78Zm-25.54-1.63c-.05-.06-.17,0-.22.06-.37.32-.84.74-1.24,1a3,3,0,0,1-1.93.66c-.55,0-1.37-.22-2.19-.22a2.82,2.82,0,0,0-1.16.22c1.21-.75,3-1.61,4.24-2.27,1.64-.89,3.27-1.9,4.31-2.35a7.24,7.24,0,0,0,.85-.27c.17-.07.34-.17.29-.32s-.19-.05-.29,0l-.6.25a2.45,2.45,0,0,1-1,0,14.92,14.92,0,0,0-1.81-.42c-1.06,0-1.93.19-3.29,1.84a.11.11,0,0,0,0,.19s.22,0,.24-.06a2.93,2.93,0,0,1,2.24-1.12c.49,0,1,.1,1.58.1a3.56,3.56,0,0,0,1.19-.17,33.8,33.8,0,0,0-8.6,4.81,4.1,4.1,0,0,0-.72.45s-.3.27-.27.37.2,0,.44-.14.3-.21.43-.34a2.88,2.88,0,0,1,.79-.11,20.28,20.28,0,0,1,2.55.47c.92.06,1.39-.13,2.8-1.23a12.05,12.05,0,0,0,1.29-1.25C886.61,456.3,886.66,456.19,886.58,456.15Zm64-1c.5.25,2.33-.28,3.12-.75.95-.57,1.79-1.46,1-1.86s-3.79.93-5.68,2.46a7.64,7.64,0,0,0-1,1c-.74.54-1.85,1.32-2.63,1.77-.62.36-2.16,1.08-2.75.8s0-1.44,2.16-3.19c1.29-1.06,3.62-2.82,4.09-2.54s.1.78-.95,1.33c-.39.21-1,.61-.76.91s.74,0,1-.19a3.19,3.19,0,0,0,1-1.08c.15-.28.47-.93,0-1.19-.85-.42-3.53.75-5.46,2.27a7,7,0,0,0-1.71,1.83c-.35.25-.69.5-1,.71-.69.47-2,1.27-2.4,1.12s.15-.74.92-1.54a57.4,57.4,0,0,1,5-4.3,3.21,3.21,0,0,0-1,.08,9.52,9.52,0,0,0-2.08,1.25c1-.78.87-1.27.54-1.44-1.06-.53-4.38.93-6.34,2.65a8.38,8.38,0,0,0-1.13,1.19,17.5,17.5,0,0,1-3.36,1.84,4.77,4.77,0,0,0,2.48-3.9,2.27,2.27,0,0,1,.47-1.08,13.45,13.45,0,0,1,1.69-1c1.09-.65,1.41-1.16,1.21-1.31s-.84.07-1.71.74a13.25,13.25,0,0,0-1.64,1.51,29.91,29.91,0,0,1-3,2.32,2.36,2.36,0,0,0-1.16.62l-1.07.76a2,2,0,0,0-.89,1.23c0,.57.52.78,1.16.8a7.16,7.16,0,0,0,2.58-.44,18.15,18.15,0,0,0,2.77-1.41c-.58,1-.59,1.83.46,1.83a8.18,8.18,0,0,0,3.57-1.8c-.92,1.17-.45,1.8.39,1.8a7,7,0,0,0,2.66-1.27l.52-.37a1.93,1.93,0,0,0-.13.65c0,.65.55,1.1,1.52,1a7.14,7.14,0,0,0,3-1.16c.45-.28,1-.62,1.42-.95a2.26,2.26,0,0,0-.35,1c-.1.76.47,1.08,1.11,1.14a5.72,5.72,0,0,0,3-1,25.21,25.21,0,0,0,2.85-2c.1-.08.22-.19.12-.29s-.24,0-.34.08a23.25,23.25,0,0,1-3.15,2.14,4.14,4.14,0,0,1-2.46.68C947.34,458.25,949.07,456.41,950.61,455.18Zm3.94-2.42c.25.17-.27.76-1.09,1.32a4.58,4.58,0,0,1-2.7,1C952,454,954.25,452.55,954.55,452.76Zm-26.06,5.72c-.3,0-.65-.13-.62-.43a1.14,1.14,0,0,1,.6-.74c.34-.21.94-.52,1.24-.72a2.82,2.82,0,0,0,1.11-.86,24.09,24.09,0,0,0,2.65-2.08,9.71,9.71,0,0,1-2.2,3.45A4.44,4.44,0,0,1,928.49,458.48Zm6.12.11c-.57-.22.62-1.59,2.14-2.84,2.63-2.14,4.54-3.2,5-2.88s-1.44,1.9-2.41,2.75C937.24,457.46,935.06,458.76,934.61,458.59ZM895.79,402a1.83,1.83,0,0,0,1-.21.72.72,0,0,0,.27-.75L897,401c-.25,0-.19.27-.27.42-.24.34-.61.27-1.09.33l-.48.11c0,.05-.14.08-.1.15s.08.06.13.05Zm.91-4.3a.07.07,0,0,0,.11-.06c0-.08,0-.15-.06-.24s-.14-.18-.16-.29a4.09,4.09,0,0,1-.41-1.05.26.26,0,0,0-.21-.17.27.27,0,0,0-.07.08,2.84,2.84,0,0,0,.2.86A2,2,0,0,0,896.7,397.69Zm-3.3,0a5.63,5.63,0,0,1,.05,1,6.77,6.77,0,0,1-.23,1,2.34,2.34,0,0,0,.17,1.67c.16.36.59.45.94.52a1.48,1.48,0,0,0,.58-.16.23.23,0,0,0,0-.17,4.7,4.7,0,0,1-.63-.05.7.7,0,0,1-.63-.57c-.29-.88.22-1.23.2-2.08l0-.45a5.84,5.84,0,0,1,0-1.77,6.73,6.73,0,0,0,0-1.11c0-.22-.12-.38-.11-.53a.19.19,0,0,1-.07-.11c-.07,0-.08,0-.12.06h0l0,0h0s0,0,0,0c0,.42,0,.82,0,1.2A4.12,4.12,0,0,0,893.4,397.69Zm-22-5.79a7.09,7.09,0,0,0,1-.43h0a1.85,1.85,0,0,0,.58,1.14,1.43,1.43,0,0,0,.68.14c.23.08.39-.09.57-.16s0,0,0,0a1.9,1.9,0,0,0,.38,1.23c.29.18.51.37.81.54a2.2,2.2,0,0,0,.07.65c.08.12.08.28.16.4a2.92,2.92,0,0,0,1.34,1.19,1.83,1.83,0,0,0,1.18.07.12.12,0,0,1,.11,0,4.34,4.34,0,0,0,.33.87c.08.09.14.2.2.28a2.15,2.15,0,0,0,.33.46c.16.23.44.31.59.56a1.29,1.29,0,0,0,.78.8c0,.06.16,0,.15.14s-.13.32-.22.48a2.6,2.6,0,0,0,.12,1c0,.11.08.16.1.26s0,0,0,0c0,.24.27.35.42.5a1.47,1.47,0,0,0,.44.63,2.23,2.23,0,0,0,.45.18.68.68,0,0,0,0,.21,4.5,4.5,0,0,0,.17.63,1.32,1.32,0,0,0,.21.43c0,.14.18.26.24.4a2.38,2.38,0,0,0-.23.45,2,2,0,0,0,0,1.18c0,.06,0,.13.08.18a2.05,2.05,0,0,0,1.06,1.05.91.91,0,0,1,.19.51,2.74,2.74,0,0,1-.09,1h0a3.32,3.32,0,0,1-.09.55s0,.07,0,.09a3.94,3.94,0,0,1-.1.7c0,.08,0,.12,0,.17a3.19,3.19,0,0,0,0,1.07,3.72,3.72,0,0,0,.21,1,5.11,5.11,0,0,0,.81,1.13v0c.07,0,.09.07.14.13s.06,0,.06.06a3.84,3.84,0,0,0,1.24.71,4.94,4.94,0,0,0,.76.18,4.56,4.56,0,0,0,1.43-.07c1.28-.27,2.21-1.18,3.37-1.72a3.11,3.11,0,0,1,1.18-.29c.1.08.11.25.21.3a1.1,1.1,0,0,0,.67.56,2.15,2.15,0,0,0,.73.12,1.73,1.73,0,0,0,.92-.21c.16,0,.19-.19.34-.27a1.68,1.68,0,0,0,1,.25,1,1,0,0,0,.52.06,1.54,1.54,0,0,0,.82-.71c.06-.13.14,0,.19.05s.13.06.15.12a10,10,0,0,0,1,.83l.48.28a3.11,3.11,0,0,1,.53.22,3,3,0,0,0,.74.22s0,0,.08,0a3.84,3.84,0,0,1,.46.11c.23,0,.46.06.69.05a.69.69,0,0,1,.32,0c.26,0,.51-.09.78-.11a5.41,5.41,0,0,0,.61-.2,3.24,3.24,0,0,0,1.22-.92c.22-.07.21-.34.36-.46a2.47,2.47,0,0,1,.34-.74s0,0,0,0a1.13,1.13,0,0,1,.12-.38c0-.21.12-.39.14-.61a6.86,6.86,0,0,0,.16-1.66,3.82,3.82,0,0,0,.05-.68c0-.13,0-.24,0-.39a1.16,1.16,0,0,1,.05-.45c.06-.15.13-.28.19-.43s.09-.14.09-.24c.2-.26.31-.57.51-.81,0-.11.08-.19.09-.29a1.4,1.4,0,0,0,.18-.52c0-.05,0-.14,0-.2a7.2,7.2,0,0,0,0-.81c0-.26-.13-.46-.15-.72a1.93,1.93,0,0,0,.32-.68,3.31,3.31,0,0,0,0-.62c.07-.13.18-.16.22-.31a2.52,2.52,0,0,0,.07-1.13c0-.14-.09-.25-.07-.38s.25.06.39.07a3.23,3.23,0,0,0,1,0c.16-.13.32.05.5,0s.32.09.53,0,.09-.15.12-.25c-.26-.13-.29-.4-.45-.62s.11-.69.14-1c0-.05.06-.07,0-.13a8.09,8.09,0,0,0,.33-.81c0-.06.08-.11.07-.17a2.24,2.24,0,0,0,.25-.57,4,4,0,0,0,.17-.62,2.32,2.32,0,0,0,.06-.95,2.41,2.41,0,0,0-.2-.81.34.34,0,0,1-.07-.15s.12,0,.19,0a1.47,1.47,0,0,0,1.09-.76s0-.05,0-.07.12-.22.14-.35.2-.31.31-.45a2.35,2.35,0,0,0,.26-1.27c0-.1.14-.11.22-.19a.12.12,0,0,1,.13,0s.1,0,.16.05c.26.23.48.65.89.5a.9.9,0,0,0,.68-.38c0-.1.14-.13.14-.24s0-.16.09-.2a1.17,1.17,0,0,1,.21.24,4,4,0,0,0,.9.71c.14.11.36.06.52.13s.35-.06.51-.11a.71.71,0,0,0,.43.26l.32.1a5,5,0,0,0,.51-.09c.07-.09.22-.09.31-.15s.08-.14.13-.16a.4.4,0,0,0,.3.17c.07.07.13,0,.19-.06a8,8,0,0,1-.23-1.2,7.24,7.24,0,0,0-.17-1c-.09-.12-.06-.29-.13-.42,0-.32-.24-.55-.31-.86a8,8,0,0,0-.7-1.32l0,0a4.28,4.28,0,0,0-.15-1c-.06-.05-.07-.1-.12-.16s-.06-.11-.06-.17-.05-.1-.09-.14a2.79,2.79,0,0,0-.55-.83,7.43,7.43,0,0,0-.9-1.06.66.66,0,0,1-.23-.21v0a8.32,8.32,0,0,0-1.18-.95v0a1.28,1.28,0,0,1-.28-.16,6.87,6.87,0,0,0-.74-.44c-.53-.22-1-.46-1.57-.66h0a6.41,6.41,0,0,0-1-.3,3.81,3.81,0,0,1-1.4-.68c-.19-.18-.43-.29-.61-.46a2.12,2.12,0,0,1-.48-.35c-.57-.44-1-1.17-1.68-1.53a3.31,3.31,0,0,0-1.28-.27l-.19-.1c-.49-.31-1-.6-1.51-.87a5.08,5.08,0,0,0-.51-.41,3.91,3.91,0,0,0-2.74-1.27,1.49,1.49,0,0,1-.51.06c-.45-.8-1.41-.88-2.19-1.16a1.57,1.57,0,0,1-.78-.91,1.93,1.93,0,0,1-.09-.31.44.44,0,0,0-.2-.18.33.33,0,0,0-.32.09c-.08.24,0,.51-.13.73s-.19.36-.28.51a1.27,1.27,0,0,1-.79.54,2.64,2.64,0,0,0-.84-.25c-.1,0-.25,0-.35,0a3.92,3.92,0,0,0-1.77.43c-.42.22-.81.42-1.2.65s-.75.46-1.08.76c-.24.14-.4.27-.63.39a3.1,3.1,0,0,1-2.06.63c-.31,0-.58-.21-.81-.34a1.56,1.56,0,0,1-.12-.11c-.24-.11-.26-.39-.4-.57s0-.2-.14-.28a.42.42,0,0,0-.31,0,3.36,3.36,0,0,0-1,1.1,2.69,2.69,0,0,0-.32,1.39c-.17.15-.4.23-.58.37s-.32.23-.46.37a2.75,2.75,0,0,0-.49.59c0,.06,0,.06-.06.08-.43,0-.91,0-1.38.07a9.2,9.2,0,0,0-1.8.57,12.86,12.86,0,0,0-1.65.85,4.57,4.57,0,0,0-.68.47,7.79,7.79,0,0,0-.86.76,2.7,2.7,0,0,0-.49.58c.07.18-.14.35,0,.48-.12.19-.37.33-.45.57a9.11,9.11,0,0,0-2.12,1.36,8.91,8.91,0,0,0-1.67,1.86v0c-.09.05,0,.16-.14.18s-.07.09-.1.14c-.14.33-.34.63-.45,1a1.25,1.25,0,0,0-.13.35,1.39,1.39,0,0,0-.06.19l0,.27c0,.07,0,.15-.06.19s-.08.18,0,.25a.71.71,0,0,0,.13.49c0,.14-.14.23-.19.34s-.16.25-.25.35.11.34.22.45A1.53,1.53,0,0,0,871.4,391.9Zm2.31.26c-.22,0-.5,0-.61-.18a1.52,1.52,0,0,1-.22-.85c.16-.1.22-.28.37-.38a1.7,1.7,0,0,0,.23-.3c.12-.09.1-.22.23-.27a3,3,0,0,0-.18,1.21A3.92,3.92,0,0,0,873.71,392.16Zm.45-.62a2.28,2.28,0,0,1,.1-1.14,2.73,2.73,0,0,1,.93-.55c.1,0,.21,0,.29,0s0,.05.08.09a2,2,0,0,0,.54.65v0a1.13,1.13,0,0,0-.66-.06,1,1,0,0,0-.57.48c0,.18,0,.4.16.49a.27.27,0,0,0,.26-.06c.07-.07.05-.2.17-.23a.45.45,0,0,1,.36-.06.42.42,0,0,1,.13.41c-.05,0-.06.13-.09.18a1.08,1.08,0,0,1-.92.54A1,1,0,0,1,874.16,391.54Zm1.1-2.37a2.06,2.06,0,0,0-1,.45,0,0,0,0,0,0,0,4.68,4.68,0,0,1,.55-.63,4.57,4.57,0,0,0,.47-.42h0A1.91,1.91,0,0,0,875.26,389.17Zm.08,4.51c-.28-.17-.6-.37-.56-.77v-.06a1.55,1.55,0,0,0,1.59-.92c0-.09.09-.15.07-.25a.61.61,0,0,0,0-.24,2.36,2.36,0,0,0-.15-.58l-.16-.24c.28.15.57.32.87.46s.65.38.71.75a2.09,2.09,0,0,1-.32,1.56,1.72,1.72,0,0,1-.93.57A1.48,1.48,0,0,1,875.34,393.68Zm2.74,2.49a1.33,1.33,0,0,1-1.18-.21,1.82,1.82,0,0,1-.8-.93,1.29,1.29,0,0,1-.08-.49,1.59,1.59,0,0,0,1.39-.4,2.2,2.2,0,0,0,.83-1.49,2.06,2.06,0,0,0-.6-1.86,7.62,7.62,0,0,0-.9-.47,2.77,2.77,0,0,1-.64-.5,1.88,1.88,0,0,1-.4-.95.63.63,0,0,1,.12-.45,1.35,1.35,0,0,1,.65-.62.49.49,0,0,0,.24-.08c.16-.12.44,0,.54-.23a.41.41,0,0,0-.09-.33.89.89,0,0,0-.76.06,2.86,2.86,0,0,0-.86.59c-.16,0-.25.16-.37.23a2.9,2.9,0,0,0-.92.63c0,.07-.13.1-.19.17s-.23.21-.29.38a3.21,3.21,0,0,0-.42.49c-.25.24-.36.59-.66.79a1.33,1.33,0,0,1-.36.35c-.17.09-.3.2-.49.28a2.41,2.41,0,0,1-.65.24c.15-.32.41-.63.56-.93s.51-.58.69-.87a12.45,12.45,0,0,1,2.85-2.26,5.87,5.87,0,0,1,2-.78,3,3,0,0,1,1-.11c.23.08.49.07.73.13a3.93,3.93,0,0,0,1.14.25s0,0,0,.07a1.21,1.21,0,0,0-.24.39,6.55,6.55,0,0,0-.6,1.29c0,.12-.09.21-.08.32s-.08.19-.08.29c.1.28.46.4.71.52.09,0,.09.07.19.08.09.24.27.31.41.48a1.46,1.46,0,0,1-1.09-.27c-.22-.22-.24-.62-.59-.73-.19,0-.46-.13-.58.08s-.18.59-.25.87l0,0a.49.49,0,0,0,0,.29,3,3,0,0,0,.35.69h0a4.94,4.94,0,0,1,.81,1.23c0,.12.1.19.1.32a2.71,2.71,0,0,1-.08,1.92c0,.13-.14.24-.14.39a5.57,5.57,0,0,1-.4.59A1.07,1.07,0,0,1,878.08,396.17Zm2.08,2.33a3.12,3.12,0,0,1-1-1.12,2.1,2.1,0,0,1-.29-1.08c.18-.34.55-.66.65-1.06a2.23,2.23,0,0,0,.12-.31c.07-.1,0-.24.13-.35a3.39,3.39,0,0,0,0-1.92,4.32,4.32,0,0,0-.55-1.19c-.15-.36-.53-.59-.63-1a1.25,1.25,0,0,1-.1-.27c.07-.17,0-.36.13-.5h0l0-.07c.09,0,.08.12.14.16a1.48,1.48,0,0,0,.58.7c.06.05.14.06.2.12a2,2,0,0,0,1.21.12c.05,0,.17-.06.19-.14s.14.1.22.12a3.75,3.75,0,0,0,2.13.29,4.23,4.23,0,0,0,1.08-.32h.05a1.44,1.44,0,0,0-.11.42c0,.07,0,.15-.05.22a3.15,3.15,0,0,0,.14,1.53c-.06.06-.2.06-.29.11a1.74,1.74,0,0,0-1,1.39c0,.32-.09.67.13.91a.71.71,0,0,0,.5.41c.1.2.37.14.55.21,0,.1-.1.17-.12.29s-.05.13-.12.17,0,.05,0,.09c-.07.25-.15.5-.24.74a2.18,2.18,0,0,1-.3.59c-.21.27-.4.49-.77.48s-.32-.22-.49-.33-.12-.28-.19-.45a1,1,0,0,0-.5-.78,1,1,0,0,0-.48-.06.92.92,0,0,0-.52.52,1.17,1.17,0,0,0,.13.66,1.41,1.41,0,0,0,1.18.76c.1,0,.2,0,.31,0a.72.72,0,0,1-.12.39c-.05.17-.15.37-.35.38a1.34,1.34,0,0,1-.63-.05C880.58,399.32,880.39,398.87,880.16,398.5ZM891.82,389a4.69,4.69,0,0,0,.75-.24c0,.14-.18.26-.26.38h0s-.06,0,0,.07h0c-.06,0-.07.1-.14.12s-.2.11-.25.19h0c-.14.15-.35.22-.48.35a.47.47,0,0,1-.24.1c-.05.06-.13.06-.17.11a2.89,2.89,0,0,1-1.67.19,1.13,1.13,0,0,1-.42,0,2.84,2.84,0,0,0-.68-.2,5.35,5.35,0,0,0-1.74,0c0,.06-.15,0-.23.07a2.06,2.06,0,0,0-.81.64,2.49,2.49,0,0,0-.37.58c-.06.06,0,.13-.11.2s-.13.15-.14.24h0s0,0,0,0,0-.31,0-.4a3.1,3.1,0,0,1,.37-.88,5.72,5.72,0,0,1,.82-.67,4,4,0,0,1,1.69-.44c.61-.09,1.34-.06,2-.13a3.88,3.88,0,0,0,1-.12l.32,0h0A2.72,2.72,0,0,0,891.82,389Zm4.74-11.22a1.7,1.7,0,0,1-.1-.37c.19-.09.41,0,.6.1a4.59,4.59,0,0,1,.81.51,5.47,5.47,0,0,1,.49.59,1.19,1.19,0,0,1,.11.38.12.12,0,0,1,0,.08h0a11,11,0,0,0-.11,1.14h0c0,.13-.07.26-.06.38s0,.12-.06.19a1.47,1.47,0,0,1-.14.4,2.39,2.39,0,0,0-.21.34c0,.2-.19.33-.32.44a1.64,1.64,0,0,1-.64.49,1.75,1.75,0,0,1-1-.22.2.2,0,0,1-.16-.16c0-.11-.11-.15-.07-.25s.06-.08.07-.13.18-.39.35-.56a7,7,0,0,0,.4-1.08c.07-.26.12-.53.18-.79A6.08,6.08,0,0,0,896.56,377.81Zm-.59,5.41v0a3.43,3.43,0,0,0,.45.35,2.87,2.87,0,0,0,.51.21h0a2.39,2.39,0,0,0,1,.09,6.11,6.11,0,0,0,1.2-.06,10.46,10.46,0,0,1,1.12,0c.24.11.49.06.69.24a2.18,2.18,0,0,1,.73.52l.34.44a3,3,0,0,1,.44.5,5.93,5.93,0,0,1,.37.82c.08.17.08.37.15.54v.06a6.65,6.65,0,0,0-1.66-.62,3.27,3.27,0,0,0-1.49-.05,7,7,0,0,1-2.42.11,1.94,1.94,0,0,1-1.51-1.18c-.06-.19-.18-.39-.22-.58a2.86,2.86,0,0,1-.19-.71c0-.13,0-.33,0-.46a4.48,4.48,0,0,1,0-.73C895.65,382.86,895.75,383.11,896,383.22Zm15.87,4.23c-.09.08-.23.07-.33.15a.3.3,0,0,1-.06-.14,2.14,2.14,0,0,0-.51-.4l0,0a5.74,5.74,0,0,1,.71,0,3.43,3.43,0,0,0,.56.22l.07.08C912.1,387.36,912,387.46,911.84,387.45Zm.57.36h.3a1.44,1.44,0,0,1,.6.55c.06.18.21.27.25.46a2.55,2.55,0,0,1,.2.48.1.1,0,0,1,0,.1,1.3,1.3,0,0,0-.74.16,3.73,3.73,0,0,0-.94.62,4.12,4.12,0,0,1-1,.64c0-.25-.2-.45-.2-.7a2.44,2.44,0,0,1-.06-.76,1.52,1.52,0,0,1,.29-.91c.11-.23.36-.32.54-.46S912.18,387.87,912.41,387.81Zm-2.85-1.39s0,0-.07,0h0a3.58,3.58,0,0,0-1.53,0,2.28,2.28,0,0,1-1.32.06c-.4-.09-.78-.16-1.17-.28a2.67,2.67,0,0,1-.86-.43,3.1,3.1,0,0,1-.64-.54.63.63,0,0,1-.11-.13c-.3-.28-.53-.53-.82-.8a1.54,1.54,0,0,0-.29-.28.72.72,0,0,1-.26-.14,3.43,3.43,0,0,1,.66-.18,5,5,0,0,1,1.28-.32,8,8,0,0,1,1.31.18s0,0,0,0a2.39,2.39,0,0,0,.77.13c.05,0,.14,0,.21,0,.63.09,1.23,0,1.92.07a4.19,4.19,0,0,1,1.26.28,1.28,1.28,0,0,1,.61.29c.24.14.44.33.67.49s.35.38.49.63a3.45,3.45,0,0,0,.69.63C911.71,386.84,910.49,386.65,909.56,386.42Zm-7-2c.45.5.94.92,1.43,1.37a8.88,8.88,0,0,0,.75.5h0a6.58,6.58,0,0,0,2.39.6,1.58,1.58,0,0,0,.86-.12h0l0,0a3.55,3.55,0,0,1,1.94.12.46.46,0,0,0,.22.11,5,5,0,0,0,.67.49c.08.1.1.25.2.34l0,.07a2.72,2.72,0,0,0-.55,2.35,1.33,1.33,0,0,0,.22.63s.06.05.09.07c-.38.29-.85.07-1.21-.07,0,0-.13-.08-.14-.16-.28-.26-.43-.71-.81-.83a1.15,1.15,0,0,0-.89-.14,5.55,5.55,0,0,0-.78-.64.81.81,0,0,0-.6-.2c-.17.09-.27.25-.44.36a3.45,3.45,0,0,1-1.36,0,2.06,2.06,0,0,1-.55-.23c-.13-.12,0-.33-.09-.5s-.09-.45-.14-.69a6.27,6.27,0,0,1-.35-.74,2.93,2.93,0,0,1-.13-.53,2.89,2.89,0,0,0-.37-1,3,3,0,0,0-.76-1c-.08-.14-.2-.25-.28-.37a2.62,2.62,0,0,1,.53.2S902.49,384.47,902.54,384.45Zm5.32,6.63s0,0,0,0,0,0,0,0-.19-.28-.31-.41-.3-.28-.43-.43a.75.75,0,0,1-.34-.32.17.17,0,0,0-.2-.07c-.18.08-.15.25-.26.38v.07a1.22,1.22,0,0,1-1.27.49c-.2,0-.42,0-.59-.15s-.4-.3-.63-.41l0-.13a.31.31,0,0,0,.05-.1c0-.15.07-.32.12-.47a3.24,3.24,0,0,0,1.32.27,1.24,1.24,0,0,0,1-.3.83.83,0,0,0,.32-.18,1.31,1.31,0,0,1,.28.17c.16.17.4.28.56.46,0,.12.12.17.14.28s.09.18.18.25A1.7,1.7,0,0,1,907.86,391.08Zm-4.36-1.28c-.07.1-.08.24-.17.32-.17-.36-.58-.61-.76-1a3.87,3.87,0,0,0-1.66-.82,24.35,24.35,0,0,1-2.74-.67,1.08,1.08,0,0,1-.35-.28c-.06-.14-.08-.29-.14-.43s0,0,0,0a10,10,0,0,0,1.83-.14,4.5,4.5,0,0,1,2,0c.35.1.6.33,1,.43a1.34,1.34,0,0,0,.27.13,3,3,0,0,1,.62.61c0,.1.1.19.11.3A3.38,3.38,0,0,1,903.5,389.8Zm-6-2.23c0,.23.27.26.38.43s.22.08.33.14a7.53,7.53,0,0,0,1.45.38,5.27,5.27,0,0,1,2,.51,1.72,1.72,0,0,1,.92.78,2.13,2.13,0,0,1,.56.94c.08.14,0,.34.11.5a2.72,2.72,0,0,1,.06.58l0,0c-.06,0,0,0,0,.09h0v.1h0s0,0,0,0,0,.05,0,.1-.15-.11-.21-.18a2.83,2.83,0,0,0-.48-.55,6,6,0,0,0-1.12-.89,12.06,12.06,0,0,0-4.52-1.24c-.94-.12-1.87-.13-2.75-.26-.22-.06-.51-.09-.61-.31s.13-.2.15-.35a5.07,5.07,0,0,0,.5-.95c0-.05.05-.12.09-.18s0-.06,0-.11h0a2.67,2.67,0,0,0,.14-.36h0a1.66,1.66,0,0,0,.12-.45h0a2.09,2.09,0,0,0,.08-.23.62.62,0,0,1,.25.2c0,.17.27.21.32.37a3.55,3.55,0,0,0,.94.66,4.7,4.7,0,0,0,1.07.3A.36.36,0,0,1,897.46,387.57Zm-3.91,1.73a5.87,5.87,0,0,0,.6.16c.6,0,1.28.1,1.9.13,0,0,0,0,0,0h0c.39.05.82.05,1.22.14h0a14.39,14.39,0,0,1,1.81.34,12.42,12.42,0,0,1,1.42.47,2.27,2.27,0,0,1,.62.37,5.59,5.59,0,0,1,1.05.85l.22.29a3.2,3.2,0,0,1,.39.54,1.59,1.59,0,0,1,.23.45c.09.07,0,.21.1.28s.09.1.14.15l.13,0c0,.47.1,1,.09,1.51a16.28,16.28,0,0,1-.09,2.31.82.82,0,0,0,0,.21c0,.41-.12.89-.18,1.32-.06.27-.11.52-.19.78s-.2.7-.26,1.07l-.15.57a3.45,3.45,0,0,0-.14.34,5.28,5.28,0,0,1-.27.53,1.51,1.51,0,0,1-.09.18,3.84,3.84,0,0,0-.46.81.5.5,0,0,0-.08.14c-.06,0-.07.09-.12.15a.49.49,0,0,1-.11.18,8.12,8.12,0,0,1-1.29,1.52c-.12.15-.28.29-.4.42s0,0,0,0l-.15.1c-.34.34-.71.6-1.07.94s-.94.88-1.41,1.29a2.41,2.41,0,0,1-1.16.55,7.9,7.9,0,0,1-2.78.17,1.83,1.83,0,0,1-1-.63c-.18-.22-.45-.43-.63-.68s-.64-.52-.89-.77a3.37,3.37,0,0,1-.31-.21,4.47,4.47,0,0,0-.41-.32,8.72,8.72,0,0,1-1.34-1.24c-.15-.05-.18-.21-.29-.31s-.16-.19-.19-.35a3.25,3.25,0,0,1-.21-.37c0-.07-.06-.1-.09-.16-.15-.29-.31-.63-.48-.94s-.15-.45-.26-.66-.17-.38-.23-.58a5.89,5.89,0,0,1-.24-.58,14.24,14.24,0,0,1-.59-2.56s0-.13,0-.18c-.05-.42-.1-.75-.11-1.15a7.81,7.81,0,0,1,0-1.45,1.85,1.85,0,0,0,.9-.57c.14-.08.23-.23.39-.33a1.36,1.36,0,0,1,.29-.06c0,.13-.14.25-.2.37-.15.29-.42.54-.41.91a.36.36,0,0,0,.28.2,1.24,1.24,0,0,0,.47,0c-.06,0,0,.1,0,.15s.19,0,.29,0a.43.43,0,0,0,0,.16,2.78,2.78,0,0,0,2.2,1c.05.07.14,0,.2,0s.08,0,.13,0a21.58,21.58,0,0,0,2.08-.62c.15-.11.4-.19.35-.41a3.54,3.54,0,0,0-1.09-.84,4.59,4.59,0,0,0-.8-.24,4,4,0,0,0-1.57.1c-.5.18-1,.43-1.42.6,0,0-.09,0-.13,0s.05-.07.08-.08l.69-.48s.49-.31.54-.32a2,2,0,0,1,1.29-.27c.19.08.38.11.55.2a.16.16,0,0,0,.14-.05c0-.2-.07-.27-.23-.4a2.53,2.53,0,0,0-.93-.14,2.93,2.93,0,0,0-.82.22,1.62,1.62,0,0,0-.41.22c-.25.12-.3.24-.54.35s-.36.26-.47.36a1.24,1.24,0,0,1-.44.11c0-.12.11-.18.13-.3s.1-.06.07-.13a3.91,3.91,0,0,0,.3-.41,3.55,3.55,0,0,1,.72-.57,3.77,3.77,0,0,1,1.46-.2,19,19,0,0,0,2,.18,2.41,2.41,0,0,0,1.16-.37c.06-.06,0-.15.08-.22a.17.17,0,0,0-.24,0,2.37,2.37,0,0,1-1.2.23,9.2,9.2,0,0,1-1.12-.05,4.41,4.41,0,0,0-1.3-.12c-.15,0-.48.16-.61.12,0-.49.43-.92.7-1.35a4,4,0,0,1,.94-.56c.2-.17.49-.27.62-.52a2.17,2.17,0,0,0,.49-.59.83.83,0,0,0,0-.36s0,0,0,0v0c.36-.21.68-.45,1-.68,0,0,.1-.08.11-.12a2.38,2.38,0,0,0,.48-.47c.1-.12.15,0,.25.06S893.44,389.25,893.55,389.3Zm10.87,15.5a.23.23,0,0,0,.19-.06c.31-.28.45-.67.74-1,.1.09,0,.15-.05.24a4.59,4.59,0,0,1-.24.5,3.6,3.6,0,0,0-.34.68c-.34.47-.76.94-1.1,1.36-.14.17-.29.35-.42.53a1,1,0,0,0-.12.17c-.09.11-.18.18-.25.28s0,.16.07.23a.56.56,0,0,0,.26,0c.51-.58,1-1.23,1.46-1.83.19-.11.26-.35.39-.5a8.18,8.18,0,0,0,.48-.76h0v0s0,.13,0,.18-.13.23-.19.37-.34.5-.49.75-.55.6-.75,1a9.45,9.45,0,0,1-.77.94v0c-.21.19-.4.48-.63.67a11.08,11.08,0,0,1-1.09,1.08c-.13.13-.29.22-.4.34s-.5.39-.72.63c-.16.05-.29-.08-.44-.12s-.26-.08-.27-.23c.28-.22.59-.46.85-.69s.55-.54.78-.84c0-.08.11-.15.06-.25s-.12-.13-.19-.07c-.32.28-.66.69-1,1-.12.07-.21.18-.32.23s-.09.07-.12.1a3.73,3.73,0,0,1-.5.39c-.17.06-.37-.06-.53-.12s-.32-.07-.39-.17a10,10,0,0,0,1-.83c.44-.29.73-.79,1.14-1.1a22.83,22.83,0,0,0,1.92-2.29c.44-.66.84-1.23,1.22-1.92a.73.73,0,0,1,.14-.26,1.85,1.85,0,0,0,.12-.33,4.25,4.25,0,0,1,.21-.43c0-.07,0-.18.16-.2s.09.12.17.2a5.57,5.57,0,0,1,.55.65,1.73,1.73,0,0,1-.2.41c-.19.3-.38.63-.55,1A.21.21,0,0,0,904.42,404.8Zm-2.4,6.72c-.33-.19-.77-.42-1.07-.63.22-.22.46-.36.67-.59a15.7,15.7,0,0,0,1.65-1.61c.35-.42.71-.78,1-1.22.15-.21.36-.43.48-.64,0,.13-.11.17-.12.31a4.62,4.62,0,0,0-.19.6,6.55,6.55,0,0,0-.1.89c-.07.3,0,.62,0,.93a7.28,7.28,0,0,1-.2,1.39.21.21,0,0,0-.08.2,1,1,0,0,1-.07.15.72.72,0,0,1-.45.48,2.34,2.34,0,0,1-1.09-.11h0C902.28,411.63,902.15,411.54,902,411.52Zm-11.17-1.1c-.22.1-.45.23-.67.34v0s0,0,0,.05,0,.09-.12.06-.18,0-.27,0a5.24,5.24,0,0,1-.75-.62h0a.76.76,0,0,0-.31-.25v0a3.06,3.06,0,0,1-.29-.21,1,1,0,0,0-.34-.06.19.19,0,0,0-.09.18,1.64,1.64,0,0,0,.38.46c.3.29.61.6.93.86,0,.07-.09.11-.15.13s-.3-.13-.44-.2c-.23-.24-.51-.3-.69-.58h0a2.85,2.85,0,0,0-.34-.35c0-.07,0,0-.06-.08a2.81,2.81,0,0,0-.34-.36h0c-.11-.12-.22-.28-.34-.4h0c0-.07-.06-.08-.06-.13a4.42,4.42,0,0,1-.4-.48h0c-.14-.14-.23-.34-.37-.5s-.26-.42-.37-.65h0c0-.09-.06-.15-.07-.23s-.05-.14-.12-.2h0c0-.22-.21-.39-.26-.62A3.19,3.19,0,0,1,885,406c0-.19-.15-.41-.19-.57a2.2,2.2,0,0,1,.21-.32h.05c.09.36.29.65.37,1s.34.75.52,1.11c.1,0,.14.22.27.17a.29.29,0,0,0,.15-.19,1.45,1.45,0,0,0-.14-.4,1.54,1.54,0,0,0-.21-.47c0-.09-.1-.11-.09-.2s-.1-.24-.12-.37l-.26-.64c0-.17-.09-.32-.1-.48l.69-.62c.07.1,0,.24.15.33a8.76,8.76,0,0,0,.84,1.94,13.72,13.72,0,0,0,1.8,2.35,8.75,8.75,0,0,0,1.32,1.26c.18.15.4.29.57.42,0,0,0,.06,0,.06Zm-5.35-1.29a4.54,4.54,0,0,1,0-.83l0,0a13.8,13.8,0,0,0,1,1.35,4,4,0,0,0,.62.68,5.29,5.29,0,0,0,1.21,1.1,1.27,1.27,0,0,0,.25.19.88.88,0,0,1-.47.28c0,.08-.16.09-.24.13a10.28,10.28,0,0,1-1,.44l-.09.07a1.13,1.13,0,0,1-.9,0c-.08,0-.07-.1-.14-.11a1.49,1.49,0,0,1-.14-.12,3.18,3.18,0,0,1-.16-1.49C885.49,410.26,885.42,409.64,885.5,409.13ZM884,405.34a3.47,3.47,0,0,0,.13-.46,2.88,2.88,0,0,1,.32-.63.24.24,0,0,1,.08-.09,5,5,0,0,1,1.48-1.41l.06,0v.39a.83.83,0,0,1-.06.21v0a.15.15,0,0,0-.06.11c-.4.54-1,.87-1.41,1.46a1,1,0,0,0-.24.47c-.08.07,0,.2-.09.24a1,1,0,0,0,0,.19s0,0,0,.07C883.88,405.88,884,405.56,884,405.34Zm6.64,4.19a16.1,16.1,0,0,1-1.57-1.52,16.39,16.39,0,0,1-1.45-2c-.23-.51-.47-.9-.66-1.41a2.86,2.86,0,0,0-.21-.58,1.74,1.74,0,0,1-.14-1,2.07,2.07,0,0,0,0-.43c0-.1-.06-.14,0-.26l0,0h0s0,.08,0,.13a.17.17,0,0,1,.07.15c.15.46.48.86.67,1.32a6.7,6.7,0,0,0,.7,1.11,4,4,0,0,0,.26.32c.14,0,.18.19.28.26a14.41,14.41,0,0,0,1.94,1.56c.24.27.56.45.77.73s.53.56.86.79c.63.66,1.61.47,2.47.53a5.47,5.47,0,0,0,2-.44,1.94,1.94,0,0,0,.71-.29,2.47,2.47,0,0,0,.61-.64l.07,0a10.83,10.83,0,0,0,.83-.83c.35-.3.7-.59,1-.91a3.34,3.34,0,0,0,.75-.7,8.39,8.39,0,0,0,1.05-1.24,6.89,6.89,0,0,0,.46-.73c.12-.17.16-.41.33-.5s0,.16.12.23,0,.19.14.24a1.73,1.73,0,0,0,.14.34c0,.15.22.33,0,.45-.31.54-.73,1-1.07,1.54l-.73.86a12.17,12.17,0,0,1-1.27,1.33,9,9,0,0,1-1.38,1.3,2.57,2.57,0,0,1-.44.29c-.16.09-.29.24-.49.26a4.43,4.43,0,0,0-1.89.55c-.19,0-.34-.12-.53-.17a1.42,1.42,0,0,0-.94.08c-.14,0-.23-.14-.36-.18a2.12,2.12,0,0,0-1.19-.14,3.64,3.64,0,0,0-.87.18c-.17.08-.3-.1-.47-.11S890.86,409.67,890.62,409.53Zm13.26-7.13s0,0,0,0a1.11,1.11,0,0,0-.13.29l-.21.43c0,.1-.12.16-.17.25a.6.6,0,0,1-.23-.32,1.71,1.71,0,0,1-.14-.49c-.11-.18,0-.39-.05-.59a5,5,0,0,1,.27-.65.77.77,0,0,1,.15-.33,0,0,0,0,0,0,0s0,.08.09.11a5.42,5.42,0,0,0,.54.89C904,402.18,903.88,402.28,903.88,402.4Zm-18.72-5.21s0-.09,0-.12c-.08-.21-.16-.42-.25-.61-.06,0,0-.09-.09-.11s.08-.15.12-.25,0,0,.07,0h.06s0,.05,0,.07l0-.05c-.05,0,0,0,0-.06s0,0,0,0,0,0,.07,0v0c.08.07,0,.22.06.31a7.62,7.62,0,0,0,0,1c0,.06,0,.22,0,.32s-.06,0-.09,0S885.24,397.32,885.16,397.19Zm.16-3.44v0l-.06.16a3.45,3.45,0,0,0-.15.79.17.17,0,0,0-.06.1c-.2.09-.26.36-.5.35s-.81-.07-1-.41a1.15,1.15,0,0,1,.26-.92c.23-.16.48-.48.82-.4s.46.11.71.06l0,.06C885.38,393.63,885.33,393.69,885.32,393.75ZM885,393c-.11-.09,0-.24,0-.37a2.34,2.34,0,0,1,.12-.4c.07-.26.28-.46.34-.72a2.19,2.19,0,0,1,.72-.79c.1,0,.17-.12.28-.14a5.05,5.05,0,0,1,1.3-.09v0a2.31,2.31,0,0,1,.47.07c-.05.08-.17.12-.26.18s-.33.38-.52.49a2.76,2.76,0,0,0-.69.53c-.19.14-.25.36-.48.42-.22.23-.35.5-.55.7C885.48,392.79,885.31,393.11,885,393Zm4.09-2.22a3.75,3.75,0,0,0,1.64-.1c.07,0,0,.08,0,.09a6,6,0,0,1-.4.46,1.41,1.41,0,0,1-.4.29,5.53,5.53,0,0,0-.68.4h0c-.56.26-.8.89-1.12,1.35,0,.13-.13.23-.2.37s-.1.23-.24.29a.51.51,0,0,1-.15.07.3.3,0,0,1-.27.07s0,0-.07-.07a4.14,4.14,0,0,1,.47-2.17c.11-.16.24-.34.36-.49A7.85,7.85,0,0,1,889.13,390.76Zm-3.48,3.53a7,7,0,0,1,.4-1,3.7,3.7,0,0,1,.86-1c.1,0,0,.1,0,.17a3.11,3.11,0,0,0-.16.67,2.32,2.32,0,0,0,0,.87c.05.25-.21.35-.3.53s-.19.11-.2.21h0a1.79,1.79,0,0,1-.36.21c-.1,0-.09-.05-.11-.1h0s0-.06,0-.08C885.8,394.58,885.56,394.47,885.65,394.29Zm2.37,1.95c.09,0,.2-.1.26,0v.23s-.06,0-.07,0h0A1,1,0,0,1,888,396.24Zm3.27-.06a.57.57,0,0,1-.11.57,2.35,2.35,0,0,1-.8.26,3,3,0,0,1-.89,0,2.66,2.66,0,0,1-.76-.27.35.35,0,0,0,0-.29.46.46,0,0,1,0-.38,3.51,3.51,0,0,1,1.33-.45,3.58,3.58,0,0,1,1.24.22S891.2,395.87,891.29,396.18Zm.34-.22a3.6,3.6,0,0,1,.59.44s-.42.16-.51.18A1.18,1.18,0,0,0,891.63,396Zm-3-7.21c-1,.11-2.17,0-3,.64-.26.15-.47.43-.79.52s-.65.25-.94.45a3.64,3.64,0,0,1-2.14.08,1.5,1.5,0,0,1-.89-.47c.25,0,.5,0,.76-.06a3.08,3.08,0,0,0,1.4-.58c.44-.24.8-.63,1.25-.88a3.39,3.39,0,0,1,1.6-.81,3,3,0,0,1,1.52,0l0,0c.22,0,.35.13.56.16a2,2,0,0,0,.56.3c.25.16.54.33.81.48v0A2.54,2.54,0,0,1,888.65,388.75ZM881.7,398a.09.09,0,0,1-.12,0,1.25,1.25,0,0,1-.5-.65.51.51,0,0,1,.24-.28c.22,0,.17.33.26.49A1.62,1.62,0,0,0,881.7,398Zm-.35,2.95,0,0a.32.32,0,0,1-.06.15s0,.09-.08.1-.1-.08-.1-.15a1.51,1.51,0,0,1,.09-1.1.34.34,0,0,1,.08-.17,3,3,0,0,0,.9-.08,1.1,1.1,0,0,0,.45-.52c0-.07,0-.09.07-.15s.05-.06.07-.11,0-.19,0-.23a1.49,1.49,0,0,0,.91-.31,2.87,2.87,0,0,0,.73-1.26c.05,0,.06-.12.09-.19s0,0,0,0c0,.11.09.17.1.29a1.5,1.5,0,0,1-.16.88c-.17.3-.53.52-.74.81a2.86,2.86,0,0,1-.52.36q-.53.42-1.08.81C881.89,400.37,881.59,400.66,881.35,401Zm1,.8c-.07.13-.08.31-.16.44a.38.38,0,0,1-.06.16.3.3,0,0,1-.24-.06c0-.08-.07-.09-.09-.18a1,1,0,0,1-.11-.6h0c.15-.49.56-.75.9-1.1s.73-.54,1.06-.82c.15-.05.22-.17.36-.25a10,10,0,0,0,.79-.8,2.44,2.44,0,0,0,.28-.43c.2,0,.26.17.35.29a1.09,1.09,0,0,1,0,.95s-.08.05-.07.1h0a3.31,3.31,0,0,1-1.15.68,2.56,2.56,0,0,0-.94.56h0C882.87,401,882.43,401.26,882.32,401.76Zm.38,1.86a.79.79,0,0,0-.09-.23,2.21,2.21,0,0,1,0-.72c0-.19.12-.35.14-.54,0,0,0,0,0,0s0-.18.1-.25a3.63,3.63,0,0,1,1.44-1.22c.34-.13.61-.31,1-.45,0-.08.15-.07.19-.14s.15-.19.25-.25.07.12.11.19a7.23,7.23,0,0,0,.26.94c.05.21.17.42.08.65a.83.83,0,0,1-.17.52.92.92,0,0,1-.45.37c0,.06-.08.05-.1.09a5.34,5.34,0,0,0-1.72,1.9v.06l-.07.12a3,3,0,0,0-.14.49h0s0,0,0,0h0s-.05,0,0,0h0a1.36,1.36,0,0,1-.09-.35c-.08-.21,0-.57-.28-.67A1.37,1.37,0,0,1,882.7,403.62Zm9.92,7.43a2.86,2.86,0,0,0-.82.29h0c-.21.15-.49.21-.71.36a4.38,4.38,0,0,0-.9.51,4.79,4.79,0,0,1-.72.35s0,0-.05,0a6.08,6.08,0,0,1-.68.33v0a.88.88,0,0,1-.28.12l-.27.08c-.06,0-.17,0-.23,0a5.05,5.05,0,0,0-.72.18c-.07,0-.16.09-.12.17s0,0,0,0a.7.7,0,0,0,.55.11,3.24,3.24,0,0,0,1-.26c.45-.24.92-.45,1.39-.67.08,0,.16-.11.25-.11s.15-.09.22-.16c.46-.33,1.06-.53,1.57-.82.12,0,.21-.1.34-.09s0,.07,0,.12,0,0,0,0-.09.21,0,.3v.18c-.27.07-.53.21-.8.26h0a5.51,5.51,0,0,0-.78.37c0,.06-.14.06-.18.12-.4.19-.71.45-1.1.64h0c0,.08-.11.05-.14.09a1.74,1.74,0,0,1-.47.24v0a5,5,0,0,1-.68.26,4.18,4.18,0,0,1-1.93.05v0a2.5,2.5,0,0,1-.78-.27c-.32-.26-.76-.41-.94-.81-.1-.09-.18-.24-.31-.31s-.06-.1-.07-.14c-.23-.23-.24-.62-.33-.92a4.12,4.12,0,0,1,0-1.16,2.66,2.66,0,0,1,.1-.68c.06-.31.1-.63.15-.92,0,0,0-.08,0-.12s.07-.25.06-.39a.46.46,0,0,0,0-.21l0,0c.09.06.19.2.32.17a.29.29,0,0,0,.15-.24s0-.05,0-.06,0-.14-.06-.15c-.06-.48-.62-.77-1.05-1a1.28,1.28,0,0,1-.81-1.19,1.08,1.08,0,0,1,0-.3s0,0,0,0h0a1.35,1.35,0,0,0,.38.61c.14.09.2.23.37.27.28.25.69.32.87.67a2.45,2.45,0,0,1,.35.63,8.15,8.15,0,0,1,.1.83,3,3,0,0,1,0,.9,1.47,1.47,0,0,1,0,.21c-.09,0,0,.13,0,.19a3,3,0,0,1,0,.52c.07.54-.14,1.12.08,1.62,0,.13.1.21.07.35s.12.32.27.42,0,.15.12.13.1.14.2.14a4.93,4.93,0,0,0,.67.11,11.61,11.61,0,0,0,2.28-.93,14.43,14.43,0,0,1,1.67-.93,10.73,10.73,0,0,1,1.46-.67c.26-.09.53-.12.8-.21s.62-.08.88.07a3.46,3.46,0,0,1,.47.18,3.32,3.32,0,0,0,.06.57C893.51,411.23,893.11,410.94,892.62,411.05Zm2.47,1.83a1.9,1.9,0,0,1-1.55,0,.72.72,0,0,1-.31-.29,1,1,0,0,1-.3-.68,1.78,1.78,0,0,1,1.31-.19c.09.13.11.31.24.41a.72.72,0,0,0,.11.15,3.57,3.57,0,0,0,.5.53Zm2.37-.45a.56.56,0,0,0-.13.24h0a.67.67,0,0,1-.54.27,2.45,2.45,0,0,1-1.73-.82,1.76,1.76,0,0,1-.5-.81c-.07-.19-.21-.44-.08-.62a1.07,1.07,0,0,1,.77.07c.06,0,0,.05.12,0h0c.44.19.7.76,1.14,1a.81.81,0,0,0,.14.12,8.19,8.19,0,0,0,.85.39S897.45,412.37,897.46,412.43Zm8.82-5.56a3.63,3.63,0,0,0-.42.92c0,.26-.17.49-.08.76a15.93,15.93,0,0,1,0,1.82,10.35,10.35,0,0,1-.26,1.28,3.48,3.48,0,0,1-.45.93,1.79,1.79,0,0,1-.66.86c-.17.14-.38.22-.54.35a2.72,2.72,0,0,1-1.6.27,9,9,0,0,1-1.42-.2c-.38-.15-.79-.3-1.14-.48a3.14,3.14,0,0,1-.7-.53c-.34-.26-.61-.66-1-.82a3.24,3.24,0,0,0-1-.6c-.06,0-.09-.09-.12-.1h0v0s.1,0,.17,0h0c.11-.07.23.05.36,0s.06,0,.11,0a4.6,4.6,0,0,1,.76.33s.1.13.18.14a1.34,1.34,0,0,0,.5.37v0c.19.15.39.27.6.41s.48.31.69.45.25.16.43.18a5,5,0,0,0,2.14.45,1.15,1.15,0,0,0,.64-.09c.16-.17.43-.23.43-.5-.17-.13-.32.1-.51,0a3.76,3.76,0,0,1-1.57-.08,3.22,3.22,0,0,1-.61-.16c-.18-.09-.39-.14-.59-.25a6.47,6.47,0,0,1-1-.61l0,0c-.22-.18-.45-.31-.66-.49a2.32,2.32,0,0,0-.59-.41,2.6,2.6,0,0,0-1.36-.37,1.35,1.35,0,0,0-.67.09.62.62,0,0,1-.23-.19s0,0,0-.05a2.57,2.57,0,0,1,.65-.2,2.4,2.4,0,0,1,.65-.17,4,4,0,0,1,1.46.23c.53.21,1.07.45,1.58.7a11.07,11.07,0,0,0,2.43,1.09s0,0,0,0H903c.1,0,.17.05.26,0a.67.67,0,0,0,.28-.06c.17,0,.39,0,.49-.22a5.55,5.55,0,0,1,.4-.72c.07-.11,0-.28.14-.38a10.62,10.62,0,0,0,.25-2,.94.94,0,0,1,0-.41,2,2,0,0,0,0-.43,2.3,2.3,0,0,0,.1-.35,3.9,3.9,0,0,1,.46-1.14,7.89,7.89,0,0,0,.3-.94c0-.08,0-.12.09-.17s.22-.34.38-.4c.23-.22.43-.38.64-.59a.49.49,0,0,1,0,.2A2.8,2.8,0,0,1,906.28,406.87Zm.55-3.14c-.13.16-.23.38-.36.54l-.42.34c0-.05,0-.1,0-.19s-.1-.4-.15-.6a3.74,3.74,0,0,0-.92-1.34,5.8,5.8,0,0,1-1.19-1.63,2.2,2.2,0,0,1-.23-.8c.13-.56.26-1.13.34-1.72a3.12,3.12,0,0,0,.09-.74s0,0,0,0,0,0,0,0a0,0,0,0,0,0-.05h0l0,0,0,0,0,0,0,0h0a4,4,0,0,0,.08.48c.07.18,0,.31.13.47a1.51,1.51,0,0,0,.13.41,2.62,2.62,0,0,0,.62.87,3.37,3.37,0,0,0,.51.49c.32.37.73.73,1,1.14a2.57,2.57,0,0,1,.5.84A1.33,1.33,0,0,1,906.83,403.73Zm-.09-7a1.8,1.8,0,0,0,.09.28c0,.09.08.27-.09.27a1,1,0,0,1-.65-.23,2,2,0,0,0-.54-.37s0-.09-.11-.07a.49.49,0,0,0-.24.33,2.56,2.56,0,0,0-.26.75v.12h0s0,.06,0,.11a.44.44,0,0,0,0,.15,4.52,4.52,0,0,0,0,.51s0,0,0,0v0h0s0,0,0-.06a.93.93,0,0,0-.1-.2,3.17,3.17,0,0,1-.07-.46.19.19,0,0,1,0-.14,7.13,7.13,0,0,1,0-1c0-.19,0-.39,0-.62a1.39,1.39,0,0,0-.23-.83,1.42,1.42,0,0,1,.39-.62c.1-.18.3-.11.43-.27a2.4,2.4,0,0,1,1.34.43,1.9,1.9,0,0,1,.56.69c.05,0,.11.08.09.15h0c-.16.18-.2.45-.42.57A.91.91,0,0,0,906.74,396.73Zm.71,5.18h0s0,0,0,0a4.86,4.86,0,0,0-.27-.49c-.19-.22-.37-.45-.58-.68s-.52-.55-.79-.82c0,0,0-.1,0-.16a2.44,2.44,0,0,1-.28-.69c0-.11-.11-.25,0-.34s.07.07.08.09.23.31.4.39.15.1.2.16a3.77,3.77,0,0,1,1.1,1.29A1.69,1.69,0,0,1,907.45,401.91Zm.81-1.42c-.3-.09-.77,0-.83-.41a11.24,11.24,0,0,0-1.48-1.45,3,3,0,0,1-.34-.64c0-.14-.07-.28,0-.4s-.14-.14-.06-.27c.3.05.53.35.87.41a1.65,1.65,0,0,0,.59,0s.1,0,.16,0a.24.24,0,0,0,.15-.17,1.43,1.43,0,0,0,0-.23c0-.14,0-.3,0-.41.23,0,.33.22.55.34a1.51,1.51,0,0,1,.41.9c.08.42,0,.92.13,1.32a2.06,2.06,0,0,0,.14.44c0,.06,0,.11.07.14s.19.24.24.37A3.42,3.42,0,0,1,908.26,400.49Zm2.28-4h0a5.79,5.79,0,0,1-.32,1.12,2.3,2.3,0,0,0-.26.49c0,.08-.09.13-.07.22a.13.13,0,0,0,0,.1h0c0,.33-.31.56-.31.91a1.12,1.12,0,0,0,0,.88s.07.08,0,.12-.08,0-.11,0-.08,0-.07-.08a1.42,1.42,0,0,1-.37-.72c-.12-.46-.06-1.05-.17-1.51a1.94,1.94,0,0,0-.33-.8,2.41,2.41,0,0,0-.8-.59h0c-.1,0-.23,0-.32-.08s-.11,0-.12-.08c.09-.23.27-.4.37-.63a1.71,1.71,0,0,0,.12-.79s0-.06,0-.09,0-.16,0-.21.07-.12.09-.19c.1-.23.31-.29.51-.41h0c.06-.06.18-.05.25-.07a1.48,1.48,0,0,1,.75.2,4.71,4.71,0,0,0,.7.43,2,2,0,0,1,.53,1.71S910.54,396.46,910.54,396.5Zm.9-2.4c-.37.37-1,.18-1.39,0-.21-.11-.37-.24-.59-.36a1.58,1.58,0,0,0-1.22-.14s-.06,0-.07,0,0,0,0,0-.4.18-.49.38c-.07,0-.06.08-.09.12a2,2,0,0,1-.18.25c0,.09-.09.06-.07.14v0c0,.06-.09.06-.07.13h0a.2.2,0,0,1-.07.15s-.09,0-.11,0-.15-.1-.19-.17h0c0-.08-.14-.1-.2-.18a2.73,2.73,0,0,0-1-.41,4.34,4.34,0,0,0-.63-.05,3.07,3.07,0,0,0-.62.42c0,.06-.11.11-.15.14s0,.07-.1.08l-.07,0,0-.12s0,0,0,.06a8.42,8.42,0,0,0-.18-1.59c0-.25,0-.52-.09-.77a2.89,2.89,0,0,0-.1-.93c0-.08.1-.11.1-.21s.22.16.35.15a2.5,2.5,0,0,0,1.41.2,1.87,1.87,0,0,0,1-.5.9.9,0,0,1,.14-.2c.06,0,.23.06.27.17a1.87,1.87,0,0,1,.56.78c.07,0,.08.12.1.19s.11.25.09.41a.14.14,0,0,0,.14.12c.26-.08.28-.41.46-.58a1.66,1.66,0,0,0,0-.77,5.36,5.36,0,0,0-.17-.69c.06,0,.18,0,.26,0a.88.88,0,0,1,.48.43c.09.13.27.22.26.4a.09.09,0,0,0,0,.1,2.24,2.24,0,0,0,.35,1.19c0,.08,0,.11,0,.18s.25.37.33.55.28.43.56.49c.07.1.18,0,.23.14a4.29,4.29,0,0,0,.54.11c.13-.06.31,0,.44-.07s0,0,0,0A2.12,2.12,0,0,1,911.44,394.1Zm3.25-2.76s0,.07-.05.11a.79.79,0,0,1-.49.35h0c-.22.06-.33-.15-.47-.27a.7.7,0,0,0-.47-.35.87.87,0,0,0-.75.39.48.48,0,0,1-.05.19,2.2,2.2,0,0,1-.18,1.08,3.64,3.64,0,0,1-.41.36,1.11,1.11,0,0,1-1,.16c-.18-.13-.45-.2-.57-.39s-.24-.39-.36-.57-.33-.46-.3-.82v-.17a2.24,2.24,0,0,0,1.15.15,4.55,4.55,0,0,0,.72-.3h0c.25-.15.52-.4.77-.55a5.05,5.05,0,0,1,.95-.66,1,1,0,0,1,1,0c.09,0,.1.07.15.12a6.3,6.3,0,0,1,.4.72C914.65,391.06,914.74,391.17,914.69,391.34Zm3.82.78c-.1.11-.2.25-.38.22a2.35,2.35,0,0,1-.87-.33c-.14,0-.26.09-.4.08a.21.21,0,0,1-.15,0,3.32,3.32,0,0,1-1.18-.89,14.12,14.12,0,0,1-1.08-1.61l-.35-.6a4.9,4.9,0,0,0-.44-.85s-.06,0,0-.07a8.87,8.87,0,0,0-.85-.88,3.38,3.38,0,0,0-.73-.38s0,0,0,0c.34-.12.52-.51.89-.6.06-.06.16-.14.11-.23a.17.17,0,0,0-.18-.1,2.22,2.22,0,0,1-.79-.59,7.51,7.51,0,0,0-.61-.76l-.14-.13a1.71,1.71,0,0,1,.67.28,6.88,6.88,0,0,1,1.91,1.74c.08.12.19.26.27.4s.33.47.46.7h0c.1.2.27.38.36.58.25.39.51.75.75,1.17,0,0,0,.08.08.12s.23.21.28.36a2.85,2.85,0,0,1,.42.43,5.46,5.46,0,0,0,.69.67h0c.42.3.82.67,1.23.95,0,.07.13.12.1.22A.09.09,0,0,0,918.51,392.12Zm-.48-3.47a6,6,0,0,1,.43,1,2,2,0,0,1,.16.59,1.4,1.4,0,0,1,.06.28c0,.14.06.21,0,.35a3.44,3.44,0,0,0,0,.45h0s0,.15,0,.2-.17-.14-.28-.24-.5-.26-.66-.55c-.08-.09-.24-.06-.3-.18s-.18-.13-.27-.17-.26-.21-.33-.38a2.14,2.14,0,0,1-.42-.37,3.41,3.41,0,0,1-.45-.67,2.88,2.88,0,0,0-.28-.33c-.06-.16-.28-.28-.28-.49-.07,0-.07-.06-.07-.11s-.18-.32-.3-.45-.28-.21-.26-.43c-.19-.15-.17-.52-.46-.59a4.52,4.52,0,0,0-.68-.8.9.9,0,0,0-.2-.28,5.48,5.48,0,0,0-.66-.61,3.82,3.82,0,0,0-1.53-.74c-.18-.1-.45,0-.59-.15a2.3,2.3,0,0,0-.48-.22h0a5.9,5.9,0,0,0-2.23-.36c-.34,0-.64,0-1,0a6.81,6.81,0,0,0-.92-.11s-.05,0-.07,0a4.44,4.44,0,0,0-1.75-.21,12.07,12.07,0,0,0-2,.49c-.27.09-.47.28-.78.26s-.35-.09-.54-.17c-1.36-.49-2.85.25-4.17-.29,0,0-.09,0-.14,0s-.38-.21-.42-.39a1.45,1.45,0,0,0,.59.06,1.56,1.56,0,0,0,.68-.13s.08,0,.1,0a8.85,8.85,0,0,0,1-.43,3.15,3.15,0,0,1,.67-.32,4.79,4.79,0,0,1,1.15-.34,2.65,2.65,0,0,1,1.21.16,2.5,2.5,0,0,0,2.06-.35c.21.19.46.26.61.5a6.83,6.83,0,0,0,1,.59,3.84,3.84,0,0,0,.88.34,11.29,11.29,0,0,0,1.14.19s.13,0,.2,0c.55.09,1.11.15,1.67.21a13.12,13.12,0,0,0,1.58.13,17.39,17.39,0,0,1,1.75.48,5.32,5.32,0,0,1,1,.52,8.74,8.74,0,0,1,.88.57c.19.1.34.28.52.39s.32.25.46.42c.5.33.85.84,1.35,1.19.11.22.37.32.47.54C917.42,388,917.93,388.2,918,388.65Zm-8-6.81c.3.08.7,0,1,.1a4,4,0,0,1,1,.3c.18.11.41.12.6.25a1.37,1.37,0,0,1,.46.21,2.82,2.82,0,0,1,.93.51c.39.22.73.53,1.1.79v0c.14.14.31.19.42.36s.38.36.6.51v0c.33.28.47.66.81,1,0,.19.25.31.27.53.1,0,0,.17.14.22a1.08,1.08,0,0,1,.17.56c-.34-.28-.63-.6-1-.91a7,7,0,0,0-.84-.79c-.23-.21-.51-.38-.71-.6a12.16,12.16,0,0,0-1.25-.75s0-.06-.08,0v0a10.34,10.34,0,0,0-2.43-.88c-.46-.12-1-.11-1.44-.21-.77-.1-1.52-.18-2.28-.24a8.16,8.16,0,0,1-2-.41c-.25-.2-.58-.27-.81-.48a1.52,1.52,0,0,1-.5-.48v-.08h0v0a5.64,5.64,0,0,0,.63.4,4.12,4.12,0,0,0,1.85.19c0,.05.07,0,.1,0,.52-.05,1,0,1.52-.05h0a4.66,4.66,0,0,0,.75,0,0,0,0,0,0,0,0c.12-.08.3,0,.46-.08S909.9,381.76,910,381.84Zm-2.16-1.57a7.54,7.54,0,0,1,1.44.89c0,.08.15.1.15.19-.73.1-1.52,0-2.25.08a8.72,8.72,0,0,1-1.9-.08c-.13-.08-.32-.1-.43-.22a.72.72,0,0,1-.43-.37c0-.07-.12-.13-.09-.23a9.69,9.69,0,0,1,1.75-.35,4.06,4.06,0,0,1,1.35,0,0,0,0,0,0,0,0C907.59,380.13,907.7,380.25,907.84,380.27Zm-2.06-1.52a1.54,1.54,0,0,1,.74.16,1.78,1.78,0,0,1,1.06.73v0c-.35.09-.75-.07-1.14,0s-1,.21-1.57.25h0c-.3,0-.57.21-.88.17-.09,0-.17,0-.21.11s.1.2.11.35.08.14,0,.19a2.39,2.39,0,0,1-.58.4,4.54,4.54,0,0,1-.65.23c-.05,0-.06,0-.11,0s-.2,0-.29,0h0c-.5.06-1-.24-1.49-.22a6.71,6.71,0,0,0-2.45.74l-.2.05c0-.06.06-.09.11-.14.35-.36.69-.74,1.05-1.08,0-.07.16-.1.19-.18s.12-.09.2-.14.09-.09.13-.13a3.27,3.27,0,0,1,1-.69,1.86,1.86,0,0,1,.53-.12c.22-.1.42.05.65,0a3.7,3.7,0,0,0,2.28-.35,3,3,0,0,1,1.06-.33A1.25,1.25,0,0,1,905.78,378.75Zm-5.33-2.6a2.35,2.35,0,0,1,1.93.53l.5.45c.28.2.54.47.83.64a10.44,10.44,0,0,0,1.08.68l-.07.06h0a8.44,8.44,0,0,1-1.1.46,3,3,0,0,1-1.67.13c-.13,0-.26,0-.4-.05a4,4,0,0,0-.72.15,3.27,3.27,0,0,0-1.36.88h0c-.19.13-.34.29-.51.43s-.08.11-.17.09,0-.16,0-.26c0-.54.19-1,.17-1.59a1.57,1.57,0,0,0,0-.33,3.64,3.64,0,0,1,.23-.86,2.25,2.25,0,0,1,.45-1A1.73,1.73,0,0,1,900.45,376.15Zm-4.7-.69a2.18,2.18,0,0,0,1-.85c.08-.09.1-.23.17-.32s.15.18.24.24c.67.82,2,.4,2.54,1.39,0,0,0,.05,0,.05v0a3,3,0,0,0-.64.74,1.42,1.42,0,0,0-.12.4.12.12,0,0,0,0,.09s0,.12,0,.15l0,0s0,.12,0,.15a2,2,0,0,1-.11.32s-.06.05,0,.08-.15-.09-.22-.12a3.49,3.49,0,0,0-1.78-.91,4.23,4.23,0,0,1-.81,0s0,0-.07,0-.08-.07-.14-.06a.59.59,0,0,1-.34-.38A.94.94,0,0,1,895.75,375.46Zm-4.17.71s0-.06.1-.06c.3-.17.57-.26.88-.45a3,3,0,0,1,1.26-.33,2.79,2.79,0,0,1,1.11.09l0,0h0c0,.05-.06.08-.06.15s-.07.06-.06.11a1,1,0,0,0-.14.62.92.92,0,0,0,.22.58,1.63,1.63,0,0,0,.9.55s.07,0,.1,0,.06.26.12.37,0,.37.09.54a4.29,4.29,0,0,1-.1,1.25c0,.14,0,.3-.1.42v0a1.54,1.54,0,0,0-.08.19v.06s0,.11-.06.16l-.07.18a.73.73,0,0,0-.14.31.83.83,0,0,0-.09.16s-.06,0-.05.09v0c-.19.24-.62.19-.87.18a1.27,1.27,0,0,1-.39-.3h0c0-.12-.14-.2-.19-.31h0c0-.1-.12-.14-.15-.24s0-.06,0-.08a1.17,1.17,0,0,0-.82-.57h0c-.2-.09-.59.06-.7-.18s-.2-.12-.25-.22v0l-.14-.29a3.09,3.09,0,0,0-.4-.74,2.29,2.29,0,0,0-1.51-.66c-.14-.06-.32-.1-.37-.25C890.22,377.12,890.93,376.62,891.58,376.17Zm-2.25,2.1c0-.1.12-.08.16,0a1,1,0,0,1,.25.13,2.24,2.24,0,0,1,.63.1s0,0,.06,0c.51.07.82.56,1,1s.4.52.59.76.48.11.73.14c.07.06,0,.08,0,.13-.27.19-.57.47-1,.36a1.43,1.43,0,0,1-.86-.54c-.06-.23-.34-.34-.58-.37a2.8,2.8,0,0,1-.64-.41,1.18,1.18,0,0,1-.29-.58A1.77,1.77,0,0,1,889.33,378.27Zm-.5-.33v.24l0,0c0,.05,0,.07,0,.1l-.21-.1-.19-.1C888.5,378.05,888.68,378,888.83,377.94Zm-4.1,1.45a.34.34,0,0,0,.17-.28c0-.1,0-.21-.1-.3a2.27,2.27,0,0,1,.05-.69v-.05h0a1.54,1.54,0,0,1,.56-.84c.06-.12.22-.15.32-.23.14.13.18.36.34.48a3.58,3.58,0,0,0,1.06.66c.19.12.42.16.61.29h0a1.17,1.17,0,0,0,.44.23,4.12,4.12,0,0,0,.63.25,2.31,2.31,0,0,0,.29.86v0a2.25,2.25,0,0,0,.52.5l.37.25c.06,0,.08,0,.15,0a2.17,2.17,0,0,1,.24.07,1.4,1.4,0,0,0,.16.26c.11.2.29.25.45.37a1.42,1.42,0,0,0,1.57,0,1.68,1.68,0,0,0,.54-.44l.09,0c.13.16.48.2.46.49a1.88,1.88,0,0,0,.71.69,3.26,3.26,0,0,0,.83,0s0,.07,0,.11,0,.07,0,.13h0l0,.17a.37.37,0,0,0,0,.15,6.32,6.32,0,0,0,.15,2.14c.06.28.22.51.3.79a2.3,2.3,0,0,0,.45.68,2.39,2.39,0,0,0,1.31.69v0h0c-.05.08.08.23,0,.28a3.45,3.45,0,0,1-1-.29c-.13-.13-.28-.17-.4-.28a2.59,2.59,0,0,1-.58-.51c-.15-.09-.15-.27-.31-.31a.65.65,0,0,1-.25-.57h0a1.78,1.78,0,0,0-.11-.7,1.52,1.52,0,0,0-.66-.8,2.35,2.35,0,0,0-1.84,0,.46.46,0,0,1-.2.09,1.8,1.8,0,0,0-.6.53.24.24,0,0,1-.32.07,6,6,0,0,0-.85-.27c-.09-.19-.32-.3-.46-.44-.37-.25-.8-.42-1.2-.64a1.92,1.92,0,0,0-.2-.79,3,3,0,0,0-.16-.42,4.16,4.16,0,0,0-1.2-1.42c-.2-.09-.36-.21-.57-.3a2.09,2.09,0,0,0-1.68.15c0,.11-.19.11-.22.23a1.69,1.69,0,0,0-.18.3c-.1,0-.12-.07-.19-.1a2.32,2.32,0,0,0-.77-.34.07.07,0,0,1-.05-.09A2.81,2.81,0,0,1,884.73,379.39Zm4.55,5.27a2.72,2.72,0,0,1,1.47.18c.18.06.35.54.6.24,0-.05.09-.06.1-.11s.12-.16.16-.23a2,2,0,0,1,1.77-.67.66.66,0,0,1,.47.18.55.55,0,0,1,.24.36s0,0,0,0,0,0-.05,0v0l0,0a1.11,1.11,0,0,0-.58.06,3.85,3.85,0,0,0-1.71,1.46l-.54.46c-.78.56-1.77.06-2.56-.22-.35-.14-.66-.32-1-.47l-.13-.1C888.05,385.47,888.53,384.79,889.28,384.66Zm-1.81.6a2.88,2.88,0,0,1-.59.07A4.54,4.54,0,0,1,886,385a4.8,4.8,0,0,0-1.49-.52c.09-.16.28-.23.39-.4a2,2,0,0,1,1.18-.43c.78.12,1.42-.35,2.26-.17l.3.16a3,3,0,0,1,.77.42,2.3,2.3,0,0,0-.75.26A3.91,3.91,0,0,0,887.47,385.26Zm-9.6-3a14.74,14.74,0,0,1,2.14-1.07,5.5,5.5,0,0,1,2.67-.44c.23,0,.46.12.7.15.46.11.7.56.88.94,0,.07.07.06,0,.13a.17.17,0,0,1-.12,0h0c-.49-.09-1-.32-1.47-.37a10,10,0,0,0-2.68.12c-.2.08-.42.11-.62.18a5.69,5.69,0,0,0-.6.18c-.45.25-.89.42-1.36.66a1.82,1.82,0,0,1-.27.15C877.31,382.62,877.67,382.58,877.87,382.29Zm-1,.39,0,0a5.1,5.1,0,0,0-.42.31h0A1.3,1.3,0,0,1,876.88,382.68Zm-.53,1.57a5.24,5.24,0,0,1,1-.84c.31-.18.63-.32.95-.49s.5-.21.73-.36a1.12,1.12,0,0,0,.35-.12,7.73,7.73,0,0,0,.8-.19,7.82,7.82,0,0,1,2.41-.13,7.94,7.94,0,0,1,1.07.26c.2.08.38.06.55.2s.06,0,.11,0,0,.08,0,.12a5.33,5.33,0,0,1-.59.82,2.27,2.27,0,0,1-1,.59,6.13,6.13,0,0,1-.92.29,17.78,17.78,0,0,1-3.92-.06,13.52,13.52,0,0,0-1.56,0l0,0C876.32,384.3,876.29,384.26,876.35,384.25Zm-5.07,5.38a4.89,4.89,0,0,1,.3-.77s0-.11.1-.16c.07-.24.29-.4.37-.65.09-.08.15-.23.25-.31s.06-.05.07-.1a9.72,9.72,0,0,1,1-1.11c.33-.25.65-.52,1-.74a2.81,2.81,0,0,1,.68-.46,2.37,2.37,0,0,1,.66-.32,2.92,2.92,0,0,1,1.14-.15,14.12,14.12,0,0,1,1.95.06,1.76,1.76,0,0,0,.33,0,8.36,8.36,0,0,0,2.12.08,6.6,6.6,0,0,0,1.7-.41,2.38,2.38,0,0,0,.87-.52,3.72,3.72,0,0,0,.82-1.1c0-.17.16-.27.11-.46s.15-.41,0-.63a1.18,1.18,0,0,0-.1-.43,1.07,1.07,0,0,1-.13-.21s-.07-.11-.05-.17c.35,0,.36-.54.73-.56a2,2,0,0,1,1.17.18l.07,0a3.76,3.76,0,0,1,.87.82c.21.19.24.46.4.67s.1.32.19.46a1.36,1.36,0,0,1,.09.23,11.9,11.9,0,0,0-1.62.26,1.88,1.88,0,0,0-1.11.11c-.21.06-.42.19-.6.26s-.13.1-.18.14c-.19.22-.44.35-.6.57-.14.06-.18.22-.3.32s-.21.2-.24.33,0,.17,0,.23.12.17.24.12a1.89,1.89,0,0,1,1-.17c.63.14,1.16.53,1.76.68a.51.51,0,0,0,.23.45,4.26,4.26,0,0,1,1.11.37c.09.09.17.09.28.16s.32.16.49.21a7,7,0,0,0,1,.34c.1,0,.15.1.26.09a2.43,2.43,0,0,0,.54.08,1.67,1.67,0,0,0,1.26-.42c.13-.12.31-.18.41-.35s.34-.41.55-.62a5.68,5.68,0,0,1,.64-.57,1,1,0,0,1,.92-.19c.09.05.2.09.24.19s-.09.11-.05.21l0,0c0,.12-.09.23-.12.36s-.15.25-.13.44a.44.44,0,0,0-.08.17c-.07.09,0,.18-.13.27s-.26.32-.34.54a1.77,1.77,0,0,1-.44.38,1.22,1.22,0,0,0-.17.15,4.06,4.06,0,0,1-.77.33,2.33,2.33,0,0,1-1.21.19,4.13,4.13,0,0,1-1.52-.54c-.39-.22-.81-.41-1.19-.65a3.19,3.19,0,0,0-.62-.19,3.85,3.85,0,0,0-2.55.2c-.84.41-1.57,1.16-2.38,1.61a2.39,2.39,0,0,1-2,.38c-.16,0-.28-.11-.44-.12a1.49,1.49,0,0,1-.54-.32,4.22,4.22,0,0,1,.26-.67,4,4,0,0,1,.49-1,3.29,3.29,0,0,1,.78-.92,3.71,3.71,0,0,1,.82-.53,1.87,1.87,0,0,1,.76-.3,1.16,1.16,0,0,1,.42-.07c.1,0,0-.18.07-.27s-.1-.1-.17-.14a3,3,0,0,0-.82.14c-.25.06-.38.23-.63.29-.27.3-.68.18-1,.48a3.76,3.76,0,0,1-.68.29,14.27,14.27,0,0,0-1.47-.34,3.18,3.18,0,0,0-1.23,0c-.4.17-.86.11-1.21.36a13.14,13.14,0,0,0-1.64.91,7.74,7.74,0,0,0-.73.49c-.05,0-.07.05-.12.08a8.6,8.6,0,0,0-1.75,1.71,5.5,5.5,0,0,0-.65.83l-.05,0A2.14,2.14,0,0,1,871.28,389.63Zm23,13.05c-.08,0-.07.11-.09.17.23.13.57.26.81,0,0-.06.1-.11.09-.19s0-.07-.09-.07A.93.93,0,0,1,894.29,402.68Zm-1.94,1s0,.09,0,.11a1,1,0,0,0,.74,0c.3-.09.36-.21.67-.27H894c.11,0,.15,0,.28.08s.1.13.34.06c.55-.44,1,.21,1.62.16.06-.06.16,0,.21-.07s0-.15-.07-.17c-.47,0-.74-.4-1.16-.44s-.52.13-.77.2c-.6-.41-1,.06-1.45.19C892.82,403.63,892.48,403.48,892.35,403.66Zm.64-1.6a1.37,1.37,0,0,1,.79.15s.06-.07.05-.12a.32.32,0,0,0-.14-.12,1.39,1.39,0,0,0-1.42-.16c-.14,0-.23.1-.41,0a.42.42,0,0,1-.17-.37.15.15,0,0,0-.21,0,.61.61,0,0,0,.17.58C892,402.44,892.55,402.08,893,402.06Zm3.67,3.24a4.47,4.47,0,0,1-1.22.23,4.89,4.89,0,0,1-1.3-.08c-.62-.06-1.16.21-1.77.07-.2,0-.3-.15-.49-.17s-.1,0-.11.07.06.14.09.21a1.77,1.77,0,0,0,1.49.22,4.6,4.6,0,0,1,1.11,0,3.58,3.58,0,0,0,2.1-.17c.12-.06.34-.1.37-.28A.17.17,0,0,0,896.66,405.3Zm.88-1.32c-.18.12.11.24,0,.36a2.68,2.68,0,0,1-.68.21,7.08,7.08,0,0,1-1.71-.26c-.32,0-.5.25-.82.28a1.9,1.9,0,0,0-1.16-.23c-.36.05-.68.2-1,.22a1.47,1.47,0,0,1-.93-.1l0-.07s0-.1,0-.13c-.19-.09-.29.1-.41.2s-.26.21-.23.4a.19.19,0,0,0,.18.1.59.59,0,0,1,.22-.19.27.27,0,0,1,.23,0c.68.4,1.25-.08,1.92-.14a1.59,1.59,0,0,1,1.05.23.78.78,0,0,0,.7-.2c.19-.18.52-.08.75,0a1.56,1.56,0,0,0,1.19.13c.33-.1.7-.14,1-.27l.2.11a.1.1,0,0,0,.14-.06.53.53,0,0,0-.14-.24C897.92,404.24,897.81,404,897.54,404Zm4.82-9.19a1.32,1.32,0,0,1-.87.45,1.65,1.65,0,0,1-1-.5,5.7,5.7,0,0,1-.61-.36,2.39,2.39,0,0,0-1.68-.16,2.54,2.54,0,0,0-.88.45,1.35,1.35,0,0,0-.41.28.64.64,0,0,0-.14.22s0,.12,0,.11h0s0,0,0,0,0,0,0,0,.06-.05.06,0,.05,0,.06,0l0,0c.06-.06,0,0,0,0a.65.65,0,0,1,.16-.09,2.67,2.67,0,0,1,1.34-.48,2.52,2.52,0,0,1,1.26.22,3.3,3.3,0,0,1,.9.65c0,.09-.5-.31-.7-.35a3.36,3.36,0,0,0-1.67-.21,2.67,2.67,0,0,0-1.44.86s0,.15-.09.15a.18.18,0,0,0,0,.21.28.28,0,0,0,.16,0c.15-.13.16-.21.28-.28a2.78,2.78,0,0,1,2.78-.33c.14.1.33.17.4.33s.11.38-.05.53-.31.2-.36.18a2.42,2.42,0,0,1-1.87.16c-.26,0-.32-.24-.42-.45s0-.48-.25-.55a.06.06,0,0,0-.06.06c-.19.29,0,.46,0,.7h0c-.18-.07-.48,0-.55-.27a.09.09,0,0,0-.11,0c0,.08,0,.17,0,.24s.19.16.31.25c.37.07.75.21,1.12.29a2.87,2.87,0,0,0,2.08-.2,4.2,4.2,0,0,0,.88-.53l.19-.14c0-.05,0-.08.08-.15s0-.1-.11-.16-.24-.16-.25-.16l-.16-.12a4.47,4.47,0,0,0,.82,0c.27-.14.52-.13.69-.42.07,0,.09-.13.17-.16a2.11,2.11,0,0,0,.18-.32.2.2,0,0,0,0-.18C902.48,394.51,902.42,394.68,902.36,394.79ZM901,396a2,2,0,0,1-.28.2s0-.31,0-.38A1.72,1.72,0,0,1,901,396Zm-4.47-1.23a2.65,2.65,0,0,0,.85-.59,2.1,2.1,0,0,1,.8-.56l.67-.18a2.34,2.34,0,0,1,.9.13,5.78,5.78,0,0,1,.67.22c.17.1.41.12.54.19a5.36,5.36,0,0,0,.54.18,1.58,1.58,0,0,0,1.2-.2c.08,0,.07,0,.13-.05s0-.1,0-.13a3.38,3.38,0,0,1-.89.1,3.69,3.69,0,0,1-.58-.09l-.89-.36a7.67,7.67,0,0,0-1-.33,2.67,2.67,0,0,0-.8,0,2.72,2.72,0,0,0-1.07.48c-.16.18-.26.23-.36.35a2.43,2.43,0,0,1-.87.65.39.39,0,0,0-.1.08C896.23,394.74,896.35,394.7,896.48,394.74Z" transform="translate(-835.09 -358.03)"/></svg>