<?xml version="1.0" encoding="UTF-8"?>
<!DOCTYPE svg PUBLIC "-//W3C//DTD SVG 1.1//EN" "http://www.w3.org/Graphics/SVG/1.1/DTD/svg11.dtd">
<svg xmlns="http://www.w3.org/2000/svg" version="1.1" width="2595px" height="344px" style="shape-rendering:geometricPrecision; text-rendering:geometricPrecision; image-rendering:optimizeQuality; fill-rule:evenodd; clip-rule:evenodd" xmlns:xlink="http://www.w3.org/1999/xlink">
<g><path style="opacity:0.98" fill="#000000" d="M 1562.5,-0.5 C 1570.83,-0.5 1579.17,-0.5 1587.5,-0.5C 1609.1,1.81388 1628.1,10.1472 1644.5,24.5C 1645.58,25.365 1645.75,26.365 1645,27.5C 1636.37,38.6339 1627.2,49.3005 1617.5,59.5C 1601.07,43.7264 1581.74,38.2264 1559.5,43C 1537.62,51.9003 1526.29,68.2337 1525.5,92C 1526.64,121.462 1541.64,138.795 1570.5,144C 1583.29,144.908 1595.29,142.242 1606.5,136C 1607.48,129.256 1607.81,122.422 1607.5,115.5C 1594.83,115.5 1582.17,115.5 1569.5,115.5C 1569.5,102.5 1569.5,89.5 1569.5,76.5C 1596.5,76.5 1623.5,76.5 1650.5,76.5C 1650.83,103.508 1650.5,130.508 1649.5,157.5C 1616.84,183.993 1580.18,191.493 1539.5,180C 1500.28,164.416 1480.28,135.416 1479.5,93C 1482.69,39.9833 1510.36,8.81666 1562.5,-0.5 Z"/></g>
<g><path style="opacity:0.971" fill="#000000" d="M -0.5,3.5 C 51.5,3.5 103.5,3.5 155.5,3.5C 155.5,17.8333 155.5,32.1667 155.5,46.5C 137.833,46.5 120.167,46.5 102.5,46.5C 102.5,91.5 102.5,136.5 102.5,181.5C 85.8333,181.5 69.1667,181.5 52.5,181.5C 52.5,136.5 52.5,91.5 52.5,46.5C 34.8333,46.5 17.1667,46.5 -0.5,46.5C -0.5,32.1667 -0.5,17.8333 -0.5,3.5 Z"/></g>
<g><path style="opacity:0.98" fill="#000000" d="M 166.5,3.5 C 183.5,3.5 200.5,3.5 217.5,3.5C 217.5,26.1667 217.5,48.8333 217.5,71.5C 238.167,71.5 258.833,71.5 279.5,71.5C 279.5,48.8333 279.5,26.1667 279.5,3.5C 296.167,3.5 312.833,3.5 329.5,3.5C 329.5,62.8333 329.5,122.167 329.5,181.5C 312.833,181.5 296.167,181.5 279.5,181.5C 279.5,158.5 279.5,135.5 279.5,112.5C 258.833,112.5 238.167,112.5 217.5,112.5C 217.5,135.5 217.5,158.5 217.5,181.5C 200.5,181.5 183.5,181.5 166.5,181.5C 166.5,122.167 166.5,62.8333 166.5,3.5 Z"/></g>
<g><path style="opacity:0.988" fill="#000000" d="M 348.5,3.5 C 395.5,3.5 442.5,3.5 489.5,3.5C 489.5,16.1667 489.5,28.8333 489.5,41.5C 458.833,41.5 428.167,41.5 397.5,41.5C 397.5,51.8333 397.5,62.1667 397.5,72.5C 425.5,72.5 453.5,72.5 481.5,72.5C 481.5,84.5 481.5,96.5 481.5,108.5C 453.5,108.5 425.5,108.5 397.5,108.5C 397.5,119.5 397.5,130.5 397.5,141.5C 428.833,141.5 460.167,141.5 491.5,141.5C 491.5,154.833 491.5,168.167 491.5,181.5C 443.833,181.5 396.167,181.5 348.5,181.5C 348.5,122.167 348.5,62.8333 348.5,3.5 Z"/></g>
<g><path style="opacity:0.979" fill="#000000" d="M 541.5,3.5 C 557.5,3.5 573.5,3.5 589.5,3.5C 589.333,29.5021 589.5,55.5021 590,81.5C 610.5,55.6667 631,29.8333 651.5,4C 671.508,3.16694 691.508,3.33361 711.5,4.5C 689.833,31.8333 668.167,59.1667 646.5,86.5C 661.754,108.675 677.254,130.675 693,152.5C 712.05,103.356 730.716,54.0225 749,4.5C 765.103,3.17626 781.269,3.17626 797.5,4.5C 819.278,61.7237 840.778,119.057 862,176.5C 862.5,118.834 862.667,61.1676 862.5,3.5C 896.865,3.04887 931.198,3.54887 965.5,5C 991.374,9.5403 1006.54,24.707 1011,50.5C 1013.7,69.2881 1010.04,86.6214 1000,102.5C 995.327,108.077 989.827,112.577 983.5,116C 998.456,136.745 1013.29,157.579 1028,178.5C 1028.5,120.168 1028.67,61.8343 1028.5,3.5C 1044.17,3.5 1059.83,3.5 1075.5,3.5C 1075.5,49.1667 1075.5,94.8333 1075.5,140.5C 1103.17,140.5 1130.83,140.5 1158.5,140.5C 1158.5,154.167 1158.5,167.833 1158.5,181.5C 1096.83,181.667 1035.17,181.5 973.5,181C 960.079,161.491 946.412,142.158 932.5,123C 924.841,122.5 917.174,122.334 909.5,122.5C 909.5,142.167 909.5,161.833 909.5,181.5C 877.832,181.667 846.165,181.5 814.5,181C 810.937,170.812 807.27,160.645 803.5,150.5C 783.167,149.167 762.833,149.167 742.5,150.5C 739.124,160.798 735.457,170.964 731.5,181C 704.5,181.667 677.5,181.667 650.5,181C 661.749,158.584 656.416,141.417 634.5,129.5C 641.737,105.98 633.737,90.8136 610.5,84C 601.639,84.2988 592.805,84.1322 584,83.5C 574.956,83.5977 571.789,87.9311 574.5,96.5C 573.011,101.457 571.678,106.457 570.5,111.5C 572.647,113.839 575.147,115.839 578,117.5C 578.309,118.766 578.809,119.933 579.5,121C 587.859,121.803 596.193,122.803 604.5,124C 607.715,124.274 610.381,125.607 612.5,128C 600.934,126.701 589.267,126.201 577.5,126.5C 577.037,131.377 574.704,132.544 570.5,130C 569.213,128.59 568.046,127.09 567,125.5C 563.931,127.513 562.265,130.18 562,133.5C 566.476,135.781 567.642,139.281 565.5,144C 565.95,145.285 566.617,146.452 567.5,147.5C 566.975,148.192 566.308,148.692 565.5,149C 567.536,151.5 567.87,154.167 566.5,157C 567.5,159.333 569.167,161 571.5,162C 576.833,162.333 582.167,162.667 587.5,163C 588.308,163.308 588.975,163.808 589.5,164.5C 589.66,170.046 589.66,175.712 589.5,181.5C 573.5,181.5 557.5,181.5 541.5,181.5C 541.5,122.167 541.5,62.8333 541.5,3.5 Z M 909.5,41.5 C 923.226,41.0734 936.893,41.5734 950.5,43C 960.152,46.629 964.819,53.629 964.5,64C 964.572,73.5841 960.238,80.2507 951.5,84C 937.573,85.4472 923.573,85.9472 909.5,85.5C 909.5,70.8333 909.5,56.1667 909.5,41.5 Z M 772.5,55.5 C 773.117,55.6107 773.617,55.944 774,56.5C 779.773,75.8176 785.939,94.9843 792.5,114C 779.5,114.667 766.5,114.667 753.5,114C 760.133,94.6019 766.466,75.1019 772.5,55.5 Z"/></g>
<g><path style="opacity:0.983" fill="#000000" d="M 1207.5,3.5 C 1223.17,3.5 1238.83,3.5 1254.5,3.5C 1254.5,49.1667 1254.5,94.8333 1254.5,140.5C 1279.07,140.828 1303.57,140.494 1328,139.5C 1345.34,94.3242 1362.17,48.9909 1378.5,3.5C 1394.83,3.5 1411.17,3.5 1427.5,3.5C 1449.2,62.7638 1471.2,121.93 1493.5,181C 1476.84,181.5 1460.17,181.667 1443.5,181.5C 1440.17,170.833 1436.83,160.167 1433.5,149.5C 1413.16,149.333 1392.83,149.5 1372.5,150C 1368.54,160.036 1364.88,170.202 1361.5,180.5C 1310.17,181.5 1258.84,181.833 1207.5,181.5C 1207.5,122.167 1207.5,62.8333 1207.5,3.5 Z M 1402.5,54.5 C 1409.2,74.2825 1415.54,94.2825 1421.5,114.5C 1408.82,114.832 1396.15,114.499 1383.5,113.5C 1390.04,93.8828 1396.37,74.2161 1402.5,54.5 Z"/></g>
<g><path style="opacity:0.981" fill="#000000" d="M 1666.5,3.5 C 1713.83,3.5 1761.17,3.5 1808.5,3.5C 1808.5,16.1667 1808.5,28.8333 1808.5,41.5C 1776.83,41.5 1745.17,41.5 1713.5,41.5C 1713.5,51.5 1713.5,61.5 1713.5,71.5C 1742.17,71.5 1770.83,71.5 1799.5,71.5C 1799.5,83.8333 1799.5,96.1667 1799.5,108.5C 1770.83,108.5 1742.17,108.5 1713.5,108.5C 1713.5,119.167 1713.5,129.833 1713.5,140.5C 1745.83,140.5 1778.17,140.5 1810.5,140.5C 1810.5,154.167 1810.5,167.833 1810.5,181.5C 1762.5,181.5 1714.5,181.5 1666.5,181.5C 1666.5,122.167 1666.5,62.8333 1666.5,3.5 Z"/></g>
<g><path style="opacity:0.979" fill="#000000" d="M 1825.5,3.5 C 1859.86,3.04887 1894.2,3.54887 1928.5,5C 1953.51,9.34465 1968.68,23.8446 1974,48.5C 1977.55,69.4297 1973.22,88.4297 1961,105.5C 1955.77,110.203 1949.93,114.037 1943.5,117C 1958.12,137.078 1972.62,157.245 1987,177.5C 1987.5,119.501 1987.67,61.501 1987.5,3.5C 2031.5,3.5 2075.5,3.5 2119.5,3.5C 2119.5,16.1667 2119.5,28.8333 2119.5,41.5C 2091.17,41.5 2062.83,41.5 2034.5,41.5C 2034.5,53.1667 2034.5,64.8333 2034.5,76.5C 2058.83,76.5 2083.17,76.5 2107.5,76.5C 2107.5,88.8333 2107.5,101.167 2107.5,113.5C 2083.17,113.5 2058.83,113.5 2034.5,113.5C 2034.5,136.167 2034.5,158.833 2034.5,181.5C 2000.49,181.833 1966.49,181.5 1932.5,180.5C 1918.96,161.245 1905.29,142.079 1891.5,123C 1885.18,122.5 1878.84,122.334 1872.5,122.5C 1872.5,142.167 1872.5,161.833 1872.5,181.5C 1856.83,181.5 1841.17,181.5 1825.5,181.5C 1825.5,122.167 1825.5,62.8333 1825.5,3.5 Z M 1872.5,41.5 C 1884.84,41.3335 1897.17,41.5001 1909.5,42C 1924.07,45.9432 1929.9,55.4432 1927,70.5C 1924.73,78.4352 1919.56,83.2685 1911.5,85C 1898.5,85.4999 1885.5,85.6666 1872.5,85.5C 1872.5,70.8333 1872.5,56.1667 1872.5,41.5 Z"/></g>
<g><path style="opacity:0.981" fill="#000000" d="M 2129.5,3.5 C 2176.83,3.5 2224.17,3.5 2271.5,3.5C 2271.5,16.1667 2271.5,28.8333 2271.5,41.5C 2239.83,41.5 2208.17,41.5 2176.5,41.5C 2176.5,51.5 2176.5,61.5 2176.5,71.5C 2205.5,71.5 2234.5,71.5 2263.5,71.5C 2263.5,83.8333 2263.5,96.1667 2263.5,108.5C 2234.5,108.5 2205.5,108.5 2176.5,108.5C 2176.5,119.167 2176.5,129.833 2176.5,140.5C 2208.83,140.5 2241.17,140.5 2273.5,140.5C 2273.5,154.167 2273.5,167.833 2273.5,181.5C 2225.5,181.5 2177.5,181.5 2129.5,181.5C 2129.5,122.167 2129.5,62.8333 2129.5,3.5 Z"/></g>
<g><path style="opacity:0.97" fill="#000000" d="M 2288.5,3.5 C 2304.5,3.5 2320.5,3.5 2336.5,3.5C 2336.5,49.1667 2336.5,94.8333 2336.5,140.5C 2363.83,140.5 2391.17,140.5 2418.5,140.5C 2418.5,154.167 2418.5,167.833 2418.5,181.5C 2375.17,181.5 2331.83,181.5 2288.5,181.5C 2288.5,122.167 2288.5,62.8333 2288.5,3.5 Z"/></g>
<g><path style="opacity:0.983" fill="#000000" d="M 2594.5,82.5 C 2594.5,88.8333 2594.5,95.1667 2594.5,101.5C 2590.95,148.215 2565.95,174.715 2519.5,181C 2489.84,181.5 2460.17,181.667 2430.5,181.5C 2430.5,122.167 2430.5,62.8333 2430.5,3.5C 2460.17,3.33335 2489.84,3.50002 2519.5,4C 2565.49,10.1587 2590.49,36.3254 2594.5,82.5 Z M 2477.5,44.5 C 2532.74,37.5653 2554.91,61.2319 2544,115.5C 2537.85,130.341 2526.69,138.508 2510.5,140C 2499.51,140.5 2488.51,140.667 2477.5,140.5C 2477.5,108.5 2477.5,76.5 2477.5,44.5 Z"/></g>
<g><path style="opacity:0.865" fill="#000000" d="M 631.5,138.5 C 633.67,139.768 635.837,139.768 638,138.5C 639.527,140.221 640.527,142.221 641,144.5C 642.403,152.384 641.07,159.717 637,166.5C 634.412,162.326 632.079,157.993 630,153.5C 629.646,148.428 630.146,143.428 631.5,138.5 Z"/></g>
<g><path style="opacity:0.951" fill="#000000" d="M 1321.5,343.5 C 1314.5,343.5 1307.5,343.5 1300.5,343.5C 1271.65,334.503 1259.48,314.836 1264,284.5C 1271.25,261.28 1287.09,249.28 1311.5,248.5C 1325.85,247.778 1337.85,252.611 1347.5,263C 1343.59,268.616 1339.09,273.782 1334,278.5C 1319.79,264.836 1305.46,264.503 1291,277.5C 1281.46,293.113 1283.3,307.28 1296.5,320C 1310.7,327.121 1323.36,324.954 1334.5,313.5C 1339.32,317.818 1343.99,322.318 1348.5,327C 1341.28,335.6 1332.28,341.1 1321.5,343.5 Z"/></g>
<g><path style="opacity:0.96" fill="#000000" d="M 1044.5,249.5 C 1051.84,249.334 1059.17,249.5 1066.5,250C 1074.33,262.5 1082.17,275 1090,287.5C 1097.83,275.167 1105.67,262.833 1113.5,250.5C 1121.14,249.503 1128.8,249.169 1136.5,249.5C 1136.5,280.5 1136.5,311.5 1136.5,342.5C 1129.5,342.5 1122.5,342.5 1115.5,342.5C 1115.67,323.164 1115.5,303.83 1115,284.5C 1107.4,297.382 1099.07,309.715 1090,321.5C 1080.93,309.715 1072.6,297.382 1065,284.5C 1064.5,303.83 1064.33,323.164 1064.5,342.5C 1057.83,342.5 1051.17,342.5 1044.5,342.5C 1044.5,311.5 1044.5,280.5 1044.5,249.5 Z"/></g>
<g><path style="opacity:0.958" fill="#000000" d="M 1191.5,249.5 C 1198.42,249.188 1205.26,249.521 1212,250.5C 1224.83,280.833 1237.67,311.167 1250.5,341.5C 1243.17,342.833 1235.83,342.833 1228.5,341.5C 1225.56,335.282 1222.89,328.949 1220.5,322.5C 1207.83,321.167 1195.17,321.167 1182.5,322.5C 1179.83,328.833 1177.17,335.167 1174.5,341.5C 1167.17,342.833 1159.83,342.833 1152.5,341.5C 1165.9,310.973 1178.9,280.306 1191.5,249.5 Z M 1200.5,276.5 C 1201.79,277.058 1202.62,278.058 1203,279.5C 1206.17,287.167 1209.33,294.833 1212.5,302.5C 1205.2,303.497 1197.86,303.831 1190.5,303.5C 1193.83,294.5 1197.17,285.5 1200.5,276.5 Z"/></g>
<g><path style="opacity:0.959" fill="#000000" d="M 1397.5,249.5 C 1404.42,249.188 1411.26,249.521 1418,250.5C 1430.83,280.833 1443.67,311.167 1456.5,341.5C 1449.19,342.665 1441.86,342.831 1434.5,342C 1431.7,335.572 1429.04,329.072 1426.5,322.5C 1413.83,321.167 1401.17,321.167 1388.5,322.5C 1385.56,328.718 1382.89,335.051 1380.5,341.5C 1373.17,342.833 1365.83,342.833 1358.5,341.5C 1371.51,310.812 1384.51,280.145 1397.5,249.5 Z M 1406.5,276.5 C 1407.79,277.058 1408.62,278.058 1409,279.5C 1411.87,287.288 1415.04,294.955 1418.5,302.5C 1411.2,303.497 1403.86,303.831 1396.5,303.5C 1399.83,294.512 1403.16,285.512 1406.5,276.5 Z"/></g>
<g><path style="opacity:0.948" fill="#000000" d="M 1521.5,343.5 C 1514.83,343.5 1508.17,343.5 1501.5,343.5C 1486.81,340.648 1477.31,331.981 1473,317.5C 1471.55,294.878 1471.05,272.211 1471.5,249.5C 1478.5,249.5 1485.5,249.5 1492.5,249.5C 1492.05,270.554 1492.55,291.554 1494,312.5C 1501.12,324.408 1510.95,327.241 1523.5,321C 1526.81,318.222 1528.97,314.722 1530,310.5C 1530.5,290.169 1530.67,269.836 1530.5,249.5C 1537.83,249.5 1545.17,249.5 1552.5,249.5C 1552.67,267.836 1552.5,286.17 1552,304.5C 1551.83,325.566 1541.67,338.566 1521.5,343.5 Z"/></g>
</svg>
